<svg width="1827" height="59" viewBox="0 0 1827 59" fill="none" xmlns="http://www.w3.org/2000/svg">
<path d="M1827 0H0V59H1827V0Z" fill="url(#paint0_radial_2101_2)"/>
<path d="M895.009 12.8195C895.803 12.6624 896.714 12.4958 897.032 12.4503C897.35 12.403 898.433 12.4087 899.441 12.4598C900.447 12.5128 901.879 12.7078 902.621 12.8934C903.363 13.0789 904.577 13.4803 905.319 13.7851C906.061 14.088 907.361 14.798 908.209 15.3621C909.057 15.9263 910.293 16.9222 910.955 17.5772C911.616 18.2323 912.566 19.3853 913.064 20.1407C913.561 20.8961 914.203 22.0245 914.492 22.6492C914.779 23.274 915.201 24.4668 915.428 25.2998C915.654 26.1328 915.889 27.7099 915.949 28.8023C916.028 30.2128 915.968 31.2995 915.746 32.5414C915.575 33.5051 915.176 34.9534 914.862 35.76C914.546 36.5665 913.96 37.7706 913.561 38.4351C913.16 39.0996 912.356 40.2015 911.774 40.8831C911.191 41.5646 910.108 42.5775 909.366 43.1341C908.624 43.6889 907.279 44.52 906.379 44.98C905.477 45.4382 904.047 46.0119 903.199 46.2542C901.842 46.6404 901.262 46.6915 898.381 46.6802C895.33 46.6688 894.991 46.631 893.467 46.1387C892.565 45.8471 891.309 45.3511 890.673 45.0387C890.037 44.7264 888.996 44.1054 888.36 43.6586C887.724 43.2099 886.67 42.3049 886.019 41.646C885.365 40.9853 884.431 39.8494 883.941 39.1205C883.452 38.3916 882.781 37.1572 882.452 36.3753C882.122 35.5952 881.683 34.1469 881.475 33.1567C881.172 31.7217 881.114 30.8792 881.189 28.9916C881.261 27.193 881.403 26.2275 881.787 24.9685C882.062 24.0578 882.581 22.7363 882.939 22.0339C883.298 21.3315 884.142 20.0366 884.818 19.1562C885.495 18.2758 886.61 17.0982 887.3 16.5378C887.988 15.9774 889.116 15.1974 889.805 14.8036C890.493 14.4098 891.621 13.8665 892.311 13.5976C892.999 13.3269 894.213 12.9785 895.009 12.8195Z" fill="#F4E9DB"/>
<path d="M1197.66 13.1092C1198.4 12.8896 1199.62 12.6359 1200.36 12.545C1201.1 12.4541 1201.92 12.3689 1202.19 12.3557C1202.45 12.3443 1203.41 12.4163 1204.31 12.5166C1205.21 12.6169 1206.55 12.8801 1207.3 13.1035C1208.04 13.3269 1209.21 13.7813 1209.9 14.1145C1210.59 14.4458 1211.67 15.0535 1212.3 15.4644C1212.94 15.8752 1214.01 16.7234 1214.69 17.3482C1215.37 17.9729 1216.43 19.2509 1217.06 20.188C1217.68 21.1252 1218.45 22.5319 1218.75 23.3119C1219.06 24.0938 1219.46 25.4569 1219.64 26.3411C1219.89 27.5792 1219.95 28.5164 1219.86 30.4115C1219.79 32.1174 1219.63 33.3082 1219.34 34.2927C1219.11 35.0746 1218.5 36.521 1217.97 37.5112C1217.45 38.5014 1216.48 39.9421 1215.82 40.7165C1215.16 41.4908 1214.01 42.5775 1213.27 43.1341C1212.53 43.6889 1211.18 44.52 1210.28 44.98C1209.38 45.4382 1207.95 46.0119 1207.1 46.2542C1205.75 46.6404 1205.17 46.6915 1202.29 46.6802C1199.23 46.6688 1198.9 46.631 1197.37 46.1368C1196.47 45.8453 1195.17 45.3284 1194.48 44.9876C1193.79 44.6468 1192.68 43.9747 1192.02 43.4957C1191.36 43.0149 1190.42 42.2178 1189.93 41.7237C1189.44 41.2295 1188.67 40.3132 1188.21 39.6884C1187.75 39.0637 1187.01 37.7857 1186.56 36.8486C1186.09 35.8546 1185.6 34.4347 1185.4 33.4407C1185.18 32.4165 1185.04 30.9246 1185.04 29.7016C1185.04 28.5827 1185.16 27.0491 1185.31 26.2937C1185.46 25.5383 1185.81 24.3248 1186.09 23.5959C1186.38 22.867 1186.91 21.7594 1187.29 21.1346C1187.67 20.5099 1188.34 19.5292 1188.79 18.9574C1189.24 18.3857 1190.07 17.4996 1190.65 16.9922C1191.22 16.4848 1192.21 15.7219 1192.84 15.2997C1193.48 14.8775 1194.52 14.3 1195.16 14.0179C1195.79 13.7377 1196.92 13.3269 1197.66 13.1092Z" fill="#F4E9DB"/>
<path d="M993.773 13.5579C994.515 13.2815 995.642 12.9445 996.278 12.8082C996.914 12.67 998.517 12.5507 999.843 12.5431C1001.36 12.5317 1002.7 12.6302 1003.46 12.8063C1004.12 12.9615 1005.33 13.3402 1006.15 13.6469C1006.98 13.9536 1008.34 14.6465 1009.19 15.1842C1010.04 15.7219 1011.51 16.9411 1012.47 17.8915C1013.42 18.8438 1014.53 20.1748 1014.93 20.8525C1015.33 21.5284 1015.91 22.742 1016.23 23.5485C1016.54 24.3551 1016.93 25.7617 1017.09 26.6724C1017.25 27.583 1017.38 28.9689 1017.38 29.7489C1017.38 30.5308 1017.29 31.7236 1017.18 32.3994C1017.07 33.0772 1016.74 34.3116 1016.45 35.1446C1016.16 35.9777 1015.54 37.3408 1015.06 38.1738C1014.43 39.2795 1013.65 40.2242 1012.18 41.6763C1010.95 42.8823 1009.66 43.9444 1008.9 44.378C1008.21 44.7699 1007 45.3379 1006.2 45.6389C1005.41 45.9399 1004.08 46.3224 1003.26 46.4871C1002.43 46.6537 1000.85 46.7862 999.699 46.7843C998.558 46.7824 997.02 46.6537 996.278 46.4984C995.536 46.3432 994.451 46.0384 993.869 45.8225C993.285 45.6048 992.376 45.211 991.846 44.946C991.316 44.6809 990.491 44.2057 990.015 43.8876C989.537 43.5696 988.508 42.7082 987.727 41.9717C986.947 41.2371 985.983 40.1655 985.586 39.5938C985.189 39.022 984.623 38.083 984.328 37.5112C984.033 36.9394 983.627 36.0004 983.424 35.4286C983.224 34.8569 982.931 33.8118 982.779 33.1094C982.624 32.407 982.499 30.936 982.499 29.8436C982.499 28.7512 982.636 27.1949 982.804 26.3884C982.973 25.5819 983.363 24.2831 983.671 23.5012C983.977 22.7212 984.555 21.5531 984.954 20.9093C985.351 20.2638 986.155 19.1732 986.739 18.486C987.321 17.7987 988.319 16.8275 988.955 16.3296C989.591 15.8317 990.632 15.1179 991.268 14.7412C991.903 14.3663 993.031 13.8343 993.773 13.5579Z" fill="#F4E9DB"/>
<path d="M1094.85 13.6734C1095.75 13.3326 1097.01 12.9407 1097.64 12.8063C1098.28 12.6699 1099.84 12.5507 1101.11 12.5431C1102.41 12.5336 1103.98 12.6416 1104.68 12.7873C1105.37 12.9312 1106.62 13.308 1107.47 13.626C1108.32 13.946 1109.71 14.6484 1110.56 15.1899C1111.4 15.7294 1112.69 16.7347 1113.42 17.422C1114.14 18.1111 1115.2 19.355 1115.76 20.188C1116.33 21.0211 1117.05 22.299 1117.37 23.0279C1117.68 23.7568 1118.1 24.9079 1118.29 25.5838C1118.55 26.5209 1118.63 27.4903 1118.63 29.6542C1118.62 32.2044 1118.57 32.6683 1118.09 34.198C1117.8 35.1352 1117.2 36.5835 1116.75 37.4165C1116.3 38.2496 1115.54 39.4423 1115.06 40.0671C1114.58 40.6919 1113.62 41.6991 1112.94 42.3068C1112.27 42.9145 1111.1 43.7816 1110.36 44.236C1109.62 44.6885 1108.36 45.3152 1107.57 45.6256C1106.77 45.9361 1105.45 46.3242 1104.63 46.489C1103.81 46.6537 1102.22 46.7881 1101.11 46.7881C1100 46.7881 1098.5 46.665 1097.79 46.5136C1097.07 46.3621 1095.97 46.0592 1095.33 45.8415C1094.7 45.6219 1093.61 45.1485 1092.92 44.7888C1092.23 44.4291 1091.07 43.6889 1090.33 43.1417C1089.6 42.5965 1088.51 41.5836 1087.92 40.8925C1087.33 40.2015 1086.52 39.094 1086.13 38.4313C1085.72 37.7687 1085.15 36.5892 1084.84 35.8073C1084.53 35.0273 1084.13 33.6641 1083.95 32.7781C1083.7 31.5494 1083.65 30.6539 1083.73 28.9916C1083.8 27.6493 1084 26.271 1084.25 25.3944C1084.48 24.6144 1084.95 23.3781 1085.29 22.6492C1085.63 21.9203 1086.29 20.7711 1086.75 20.0934C1087.22 19.4175 1088.12 18.3213 1088.77 17.6605C1089.41 16.9998 1090.67 15.9718 1091.57 15.3773C1092.47 14.7828 1093.95 14.016 1094.85 13.6734Z" fill="#F4E9DB"/>
<path d="M821.283 18.2474C820.813 17.2838 820.43 16.4527 820.43 16.4015C820.43 16.3504 832.744 16.3069 847.795 16.3069C862.845 16.3069 875.132 16.3712 875.102 16.4489C875.069 16.5265 874.645 17.3993 874.159 18.3894C873.672 19.3796 873.013 20.9548 872.695 21.8919C872.375 22.8291 871.972 24.321 871.799 25.2051C871.625 26.0912 871.431 27.7515 871.367 28.8969C871.299 30.101 871.35 31.8182 871.483 32.9674C871.612 34.0598 871.889 35.6369 872.103 36.4699C872.317 37.3029 872.799 38.7929 873.175 39.7831C873.55 40.7733 874.107 42.072 874.967 43.7589H820.43L820.933 42.6703C821.208 42.072 821.783 40.6862 822.206 39.5938C822.63 38.5014 823.203 36.6687 823.476 35.5233C823.91 33.7039 823.974 33.0204 823.974 30.1276C823.976 27.6928 823.885 26.3638 823.629 25.1105C823.44 24.1733 823.025 22.6398 822.711 21.7026C822.395 20.7655 821.754 19.2111 821.283 18.2474Z" fill="#F4E9DB"/>
<path d="M922.83 18.1528C922.366 17.2421 921.988 16.4527 921.988 16.4015C921.988 16.3504 934.216 16.3069 949.16 16.3069C967.146 16.3069 976.332 16.3712 976.332 16.4962C976.332 16.6003 975.974 17.3879 975.537 18.2474C975.099 19.107 974.407 20.7901 973.999 21.9866C973.592 23.185 973.116 25.0593 972.945 26.1517C972.71 27.6569 972.659 28.8969 972.74 31.2635C972.8 33.0337 972.977 34.961 973.151 35.7126C973.318 36.4415 973.746 37.8899 974.099 38.9311C974.454 39.9724 975.057 41.4416 975.44 42.197C975.826 42.9524 976.14 43.6131 976.14 43.6642C976.14 43.7154 963.955 43.7589 921.988 43.7589L922.451 42.8596C922.705 42.3655 923.275 41.0648 923.719 39.9724C924.162 38.88 924.734 37.1326 924.987 36.0913C925.241 35.05 925.528 33.3025 925.626 32.2101C925.732 31.0174 925.732 29.3135 925.628 27.9503C925.532 26.7008 925.287 24.9969 925.083 24.1638C924.881 23.3308 924.48 22.0112 924.193 21.2293C923.908 20.4493 923.295 19.0634 922.83 18.1528Z" fill="#F4E9DB"/>
<path d="M1024.44 18.4368C1023.95 17.4731 1023.55 16.6003 1023.55 16.4962C1023.55 16.3712 1032.7 16.3069 1050.62 16.3069C1065.51 16.3069 1077.7 16.3277 1077.7 16.3542C1077.71 16.3807 1077.32 17.1683 1076.85 18.1055C1076.38 19.0426 1075.69 20.7049 1075.32 21.7973C1074.95 22.8897 1074.51 24.5936 1074.34 25.5838C1074.15 26.6686 1074.03 28.5088 1074.03 30.2222C1074.03 31.9356 1074.15 33.7758 1074.34 34.8607C1074.51 35.8508 1074.95 37.5547 1075.32 38.6472C1075.68 39.7396 1076.33 41.3375 1077.51 43.7589H1050.53C1035.69 43.7589 1023.54 43.7381 1023.54 43.7116C1023.54 43.6851 1023.88 42.9391 1024.29 42.055C1024.71 41.1708 1025.32 39.679 1025.66 38.7418C1025.99 37.8047 1026.45 36.1859 1026.67 35.1446C1027 33.6471 1027.08 32.5774 1027.09 30.0329C1027.1 27.6531 1027.01 26.3714 1026.75 25.1105C1026.56 24.1733 1026.16 22.6833 1025.86 21.7973C1025.57 20.9131 1024.93 19.4004 1024.44 18.4368Z" fill="#F4E9DB"/>
<path d="M1125.72 18.3894C1125.23 17.3993 1124.8 16.5265 1124.75 16.4489C1124.71 16.3712 1136.87 16.3069 1151.77 16.3069C1166.68 16.3069 1178.87 16.3712 1178.88 16.4489C1178.88 16.5265 1178.45 17.4864 1177.92 18.5788C1177.4 19.6712 1176.71 21.4186 1176.4 22.4599C1176.08 23.5012 1175.69 25.2487 1175.52 26.3411C1175.35 27.4335 1175.21 29.1374 1175.22 30.1276C1175.22 31.1177 1175.34 32.8216 1175.49 33.914C1175.64 35.0064 1176.02 36.7104 1176.33 37.7005C1176.64 38.6907 1177.07 39.9251 1177.28 40.4457C1177.5 40.9664 1177.94 41.9244 1178.87 43.7589H1124.72L1125.66 41.8183C1126.18 40.7505 1126.82 39.1962 1127.09 38.3632C1127.36 37.5301 1127.77 35.9531 1128 34.8607C1128.32 33.3574 1128.42 32.2025 1128.43 30.1276C1128.43 28.4085 1128.31 26.7273 1128.12 25.6311C1127.94 24.6674 1127.53 23.0487 1127.2 22.0339C1126.87 21.0192 1126.2 19.3796 1125.72 18.3894Z" fill="#F4E9DB"/>
<path d="M1300.29 12.8195C1301.09 12.6624 1302 12.4958 1302.32 12.4503C1302.64 12.403 1303.72 12.4087 1304.73 12.4598C1305.73 12.5128 1307.16 12.7078 1307.91 12.8934C1308.65 13.0789 1309.86 13.4803 1310.6 13.7851C1311.35 14.088 1312.65 14.798 1313.49 15.3621C1314.34 15.9263 1315.58 16.9222 1316.24 17.5772C1316.9 18.2323 1317.85 19.3853 1318.35 20.1407C1318.85 20.8961 1319.49 22.0245 1319.78 22.6492C1320.06 23.274 1320.49 24.4668 1320.71 25.2998C1320.94 26.1328 1321.17 27.7099 1321.23 28.8023C1321.31 30.2128 1321.25 31.2995 1321.03 32.5414C1320.86 33.5051 1320.46 34.9534 1320.15 35.76C1319.83 36.5665 1319.24 37.7706 1318.85 38.4351C1318.45 39.0996 1317.64 40.2015 1317.06 40.8831C1316.48 41.5646 1315.39 42.5775 1314.65 43.1341C1313.91 43.6889 1312.56 44.52 1311.66 44.98C1310.76 45.4382 1309.33 46.0119 1308.48 46.2542C1307.13 46.6404 1306.55 46.6915 1303.67 46.6802C1300.62 46.6688 1300.28 46.631 1298.75 46.1387C1297.85 45.8471 1296.59 45.3511 1295.96 45.0387C1295.32 44.7264 1294.28 44.1054 1293.65 43.6586C1293.01 43.2099 1291.96 42.3049 1291.3 41.646C1290.65 40.9853 1289.72 39.8494 1289.23 39.1205C1288.74 38.3916 1288.07 37.1572 1287.74 36.3753C1287.41 35.5952 1286.97 34.1469 1286.76 33.1567C1286.46 31.7217 1286.4 30.8792 1286.47 28.9916C1286.55 27.193 1286.69 26.2275 1287.07 24.9685C1287.35 24.0578 1287.87 22.7363 1288.22 22.0339C1288.58 21.3315 1289.43 20.0366 1290.1 19.1562C1290.78 18.2758 1291.9 17.0982 1292.59 16.5378C1293.27 15.9774 1294.4 15.1974 1295.09 14.8036C1295.78 14.4098 1296.91 13.8665 1297.6 13.5976C1298.28 13.3269 1299.5 12.9785 1300.29 12.8195Z" fill="#F4E9DB"/>
<path d="M1602.95 13.1092C1603.69 12.8896 1604.9 12.6359 1605.64 12.545C1606.39 12.4541 1607.21 12.3689 1607.47 12.3557C1607.74 12.3443 1608.69 12.4163 1609.59 12.5166C1610.49 12.6169 1611.84 12.8801 1612.58 13.1035C1613.32 13.3269 1614.49 13.7813 1615.18 14.1145C1615.87 14.4458 1616.95 15.0535 1617.59 15.4644C1618.22 15.8752 1619.3 16.7234 1619.97 17.3482C1620.65 17.9729 1621.72 19.2509 1622.34 20.188C1622.97 21.1252 1623.73 22.5319 1624.04 23.3119C1624.34 24.0938 1624.74 25.4569 1624.92 26.3411C1625.18 27.5792 1625.23 28.5164 1625.15 30.4115C1625.08 32.1174 1624.92 33.3082 1624.63 34.2927C1624.4 35.0746 1623.78 36.521 1623.26 37.5112C1622.73 38.5014 1621.76 39.9421 1621.1 40.7165C1620.44 41.4908 1619.3 42.5775 1618.56 43.1341C1617.81 43.6889 1616.47 44.52 1615.57 44.98C1614.67 45.4382 1613.24 46.0119 1612.39 46.2542C1611.03 46.6404 1610.45 46.6915 1607.57 46.6802C1604.52 46.6688 1604.18 46.631 1602.66 46.1368C1601.75 45.8453 1600.45 45.3284 1599.77 44.9876C1599.08 44.6468 1597.97 43.9747 1597.31 43.4957C1596.65 43.0149 1595.71 42.2178 1595.22 41.7237C1594.73 41.2295 1593.96 40.3132 1593.5 39.6884C1593.04 39.0637 1592.3 37.7857 1591.85 36.8486C1591.38 35.8546 1590.89 34.4347 1590.68 33.4407C1590.47 32.4165 1590.33 30.9246 1590.32 29.7016C1590.32 28.5827 1590.44 27.0491 1590.59 26.2937C1590.74 25.5383 1591.1 24.3248 1591.38 23.5959C1591.66 22.867 1592.2 21.7594 1592.58 21.1346C1592.95 20.5099 1593.63 19.5292 1594.08 18.9574C1594.52 18.3857 1595.36 17.4996 1595.93 16.9922C1596.5 16.4848 1597.49 15.7219 1598.13 15.2997C1598.76 14.8775 1599.8 14.3 1600.44 14.0179C1601.08 13.7377 1602.2 13.3269 1602.95 13.1092Z" fill="#F4E9DB"/>
<path d="M1399.06 13.5579C1399.8 13.2815 1400.93 12.9445 1401.56 12.8082C1402.2 12.67 1403.8 12.5507 1405.13 12.5431C1406.64 12.5317 1407.98 12.6302 1408.74 12.8063C1409.4 12.9615 1410.62 13.3402 1411.44 13.6469C1412.26 13.9536 1413.63 14.6465 1414.47 15.1842C1415.32 15.7219 1416.8 16.9411 1417.75 17.8915C1418.7 18.8438 1419.81 20.1748 1420.21 20.8525C1420.61 21.5284 1421.2 22.742 1421.51 23.5485C1421.83 24.3551 1422.22 25.7617 1422.38 26.6724C1422.54 27.583 1422.67 28.9689 1422.66 29.7489C1422.66 30.5308 1422.57 31.7236 1422.46 32.3994C1422.35 33.0772 1422.02 34.3116 1421.73 35.1446C1421.45 35.9777 1420.82 37.3408 1420.35 38.1738C1419.72 39.2795 1418.94 40.2242 1417.46 41.6763C1416.23 42.8823 1414.94 43.9444 1414.19 44.378C1413.5 44.7699 1412.28 45.3379 1411.49 45.6389C1410.69 45.9399 1409.37 46.3224 1408.55 46.4871C1407.72 46.6537 1406.13 46.7862 1404.98 46.7843C1403.84 46.7824 1402.31 46.6537 1401.56 46.4984C1400.82 46.3432 1399.74 46.0384 1399.15 45.8225C1398.57 45.6048 1397.66 45.211 1397.13 44.946C1396.6 44.6809 1395.78 44.2057 1395.3 43.8876C1394.82 43.5696 1393.79 42.7082 1393.01 41.9717C1392.23 41.2371 1391.27 40.1655 1390.87 39.5938C1390.47 39.022 1389.91 38.083 1389.61 37.5112C1389.32 36.9394 1388.91 36.0004 1388.71 35.4286C1388.51 34.8569 1388.22 33.8118 1388.06 33.1094C1387.91 32.407 1387.78 30.936 1387.78 29.8436C1387.78 28.7512 1387.92 27.1949 1388.09 26.3884C1388.26 25.5819 1388.65 24.2831 1388.96 23.5012C1389.26 22.7212 1389.84 21.5531 1390.24 20.9093C1390.64 20.2638 1391.44 19.1732 1392.02 18.486C1392.61 17.7987 1393.6 16.8275 1394.24 16.3296C1394.88 15.8317 1395.92 15.1179 1396.55 14.7412C1397.19 14.3663 1398.32 13.8343 1399.06 13.5579Z" fill="#F4E9DB"/>
<path d="M1500.13 13.6734C1501.03 13.3326 1502.29 12.9407 1502.93 12.8063C1503.56 12.6699 1505.13 12.5507 1506.4 12.5431C1507.69 12.5336 1509.26 12.6416 1509.96 12.7873C1510.65 12.9312 1511.91 13.308 1512.76 13.626C1513.61 13.946 1514.99 14.6484 1515.84 15.1899C1516.69 15.7294 1517.98 16.7347 1518.7 17.422C1519.43 18.1111 1520.48 19.355 1521.05 20.188C1521.61 21.0211 1522.33 22.299 1522.65 23.0279C1522.97 23.7568 1523.38 24.9079 1523.57 25.5838C1523.84 26.5209 1523.92 27.4903 1523.92 29.6542C1523.91 32.2044 1523.86 32.6683 1523.38 34.198C1523.09 35.1352 1522.49 36.5835 1522.04 37.4165C1521.59 38.2496 1520.83 39.4423 1520.34 40.0671C1519.86 40.6919 1518.91 41.6991 1518.23 42.3068C1517.55 42.9145 1516.39 43.7816 1515.65 44.236C1514.91 44.6885 1513.65 45.3152 1512.85 45.6256C1512.06 45.9361 1510.74 46.3242 1509.91 46.489C1509.09 46.6537 1507.51 46.7881 1506.4 46.7881C1505.28 46.7881 1503.79 46.665 1503.07 46.5136C1502.36 46.3621 1501.25 46.0592 1500.62 45.8415C1499.98 45.6219 1498.9 45.1485 1498.21 44.7888C1497.52 44.4291 1496.35 43.6889 1495.62 43.1417C1494.88 42.5965 1493.8 41.5836 1493.21 40.8925C1492.62 40.2015 1491.81 39.094 1491.41 38.4313C1491.01 37.7687 1490.43 36.5892 1490.13 35.8073C1489.82 35.0273 1489.42 33.6641 1489.23 32.7781C1488.98 31.5494 1488.93 30.6539 1489.02 28.9916C1489.08 27.6493 1489.28 26.271 1489.54 25.3944C1489.76 24.6144 1490.23 23.3781 1490.57 22.6492C1490.92 21.9203 1491.57 20.7711 1492.04 20.0934C1492.5 19.4175 1493.41 18.3213 1494.05 17.6605C1494.69 16.9998 1495.96 15.9718 1496.86 15.3773C1497.76 14.7828 1499.23 14.016 1500.13 13.6734Z" fill="#F4E9DB"/>
<path d="M1226.57 18.2474C1226.1 17.2838 1225.71 16.4527 1225.71 16.4015C1225.71 16.3504 1238.03 16.3069 1253.08 16.3069C1268.13 16.3069 1280.42 16.3712 1280.39 16.4489C1280.35 16.5265 1279.93 17.3993 1279.44 18.3894C1278.96 19.3796 1278.3 20.9548 1277.98 21.8919C1277.66 22.8291 1277.26 24.321 1277.08 25.2051C1276.91 26.0912 1276.72 27.7515 1276.65 28.8969C1276.58 30.101 1276.63 31.8182 1276.77 32.9674C1276.9 34.0598 1277.17 35.6369 1277.39 36.4699C1277.6 37.3029 1278.08 38.7929 1278.46 39.7831C1278.84 40.7733 1279.39 42.072 1280.25 43.7589H1225.71L1226.22 42.6703C1226.49 42.072 1227.07 40.6862 1227.49 39.5938C1227.92 38.5014 1228.49 36.6687 1228.76 35.5233C1229.2 33.7039 1229.26 33.0204 1229.26 30.1276C1229.26 27.6928 1229.17 26.3638 1228.91 25.1105C1228.72 24.1733 1228.31 22.6398 1228 21.7026C1227.68 20.7655 1227.04 19.2111 1226.57 18.2474Z" fill="#F4E9DB"/>
<path d="M1328.12 18.1528C1327.65 17.2421 1327.27 16.4527 1327.27 16.4015C1327.27 16.3504 1339.5 16.3069 1354.45 16.3069C1372.43 16.3069 1381.62 16.3712 1381.62 16.4962C1381.62 16.6003 1381.26 17.3879 1380.82 18.2474C1380.38 19.107 1379.69 20.7901 1379.28 21.9866C1378.88 23.185 1378.4 25.0593 1378.23 26.1517C1377.99 27.6569 1377.94 28.8969 1378.03 31.2635C1378.09 33.0337 1378.26 34.961 1378.44 35.7126C1378.6 36.4415 1379.03 37.8899 1379.38 38.9311C1379.74 39.9724 1380.34 41.4416 1380.73 42.197C1381.11 42.9524 1381.42 43.6131 1381.42 43.6642C1381.42 43.7154 1369.24 43.7589 1327.27 43.7589L1327.74 42.8596C1327.99 42.3655 1328.56 41.0648 1329 39.9724C1329.45 38.88 1330.02 37.1326 1330.27 36.0913C1330.53 35.05 1330.81 33.3025 1330.91 32.2101C1331.02 31.0174 1331.02 29.3135 1330.91 27.9503C1330.82 26.7008 1330.57 24.9969 1330.37 24.1638C1330.17 23.3308 1329.77 22.0112 1329.48 21.2293C1329.19 20.4493 1328.58 19.0634 1328.12 18.1528Z" fill="#F4E9DB"/>
<path d="M1429.72 18.4368C1429.23 17.4731 1428.83 16.6003 1428.83 16.4962C1428.83 16.3712 1437.99 16.3069 1455.91 16.3069C1470.8 16.3069 1482.99 16.3277 1482.99 16.3542C1482.99 16.3807 1482.61 17.1683 1482.13 18.1055C1481.66 19.0426 1480.97 20.7049 1480.6 21.7973C1480.23 22.8897 1479.79 24.5936 1479.62 25.5838C1479.44 26.6686 1479.32 28.5088 1479.32 30.2222C1479.32 31.9356 1479.44 33.7758 1479.62 34.8607C1479.79 35.8508 1480.23 37.5547 1480.6 38.6472C1480.97 39.7396 1481.61 41.3375 1482.79 43.7589H1455.81C1440.97 43.7589 1428.83 43.7381 1428.83 43.7116C1428.82 43.6851 1429.16 42.9391 1429.58 42.055C1430 41.1708 1430.61 39.679 1430.94 38.7418C1431.27 37.8047 1431.73 36.1859 1431.96 35.1446C1432.28 33.6471 1432.37 32.5774 1432.38 30.0329C1432.38 27.6531 1432.29 26.3714 1432.03 25.1105C1431.84 24.1733 1431.44 22.6833 1431.15 21.7973C1430.85 20.9131 1430.21 19.4004 1429.72 18.4368Z" fill="#F4E9DB"/>
<path d="M1531 18.3894C1530.52 17.3993 1530.08 16.5265 1530.04 16.4489C1530 16.3712 1542.15 16.3069 1557.06 16.3069C1571.96 16.3069 1584.16 16.3712 1584.16 16.4489C1584.16 16.5265 1583.74 17.4864 1583.21 18.5788C1582.68 19.6712 1582 21.4186 1581.68 22.4599C1581.37 23.5012 1580.97 25.2487 1580.8 26.3411C1580.64 27.4335 1580.5 29.1374 1580.5 30.1276C1580.5 31.1177 1580.63 32.8216 1580.78 33.914C1580.93 35.0064 1581.3 36.7104 1581.61 37.7005C1581.92 38.6907 1582.35 39.9251 1582.57 40.4457C1582.78 40.9664 1583.23 41.9244 1584.16 43.7589H1530L1530.95 41.8183C1531.47 40.7505 1532.11 39.1962 1532.38 38.3632C1532.64 37.5301 1533.05 35.9531 1533.28 34.8607C1533.6 33.3574 1533.71 32.2025 1533.71 30.1276C1533.71 28.4085 1533.6 26.7273 1533.4 25.6311C1533.23 24.6674 1532.82 23.0487 1532.49 22.0339C1532.16 21.0192 1531.49 19.3796 1531 18.3894Z" fill="#F4E9DB"/>
<path d="M1704.58 12.8196C1705.37 12.6624 1706.28 12.4958 1706.6 12.4504C1706.92 12.403 1708 12.4087 1709.01 12.4598C1710.02 12.5128 1711.45 12.7079 1712.19 12.8934C1712.93 13.0789 1714.15 13.4803 1714.89 13.7851C1715.63 14.088 1716.93 14.798 1717.78 15.3622C1718.63 15.9264 1719.86 16.9222 1720.53 17.5773C1721.19 18.2323 1722.14 19.3853 1722.63 20.1407C1723.13 20.8961 1723.77 22.0245 1724.06 22.6493C1724.35 23.274 1724.77 24.4668 1725 25.2998C1725.22 26.1328 1725.46 27.7099 1725.52 28.8023C1725.6 30.2128 1725.54 31.2995 1725.32 32.5415C1725.15 33.5051 1724.75 34.9535 1724.43 35.76C1724.12 36.5665 1723.53 37.7706 1723.13 38.4351C1722.73 39.0997 1721.93 40.2015 1721.34 40.8831C1720.76 41.5647 1719.68 42.5776 1718.94 43.1342C1718.19 43.6889 1716.85 44.52 1715.95 44.9801C1715.05 45.4383 1713.62 46.0119 1712.77 46.2542C1711.41 46.6405 1710.83 46.6916 1707.95 46.6802C1704.9 46.6689 1704.56 46.631 1703.04 46.1387C1702.14 45.8472 1700.88 45.3512 1700.24 45.0388C1699.61 44.7264 1698.57 44.1054 1697.93 43.6586C1697.29 43.2099 1696.24 42.3049 1695.59 41.6461C1694.94 40.9853 1694 39.8494 1693.51 39.1205C1693.02 38.3916 1692.35 37.1572 1692.02 36.3753C1691.69 35.5953 1691.25 34.1469 1691.04 33.1568C1690.74 31.7217 1690.68 30.8792 1690.76 28.9916C1690.83 27.1931 1690.97 26.2275 1691.36 24.9685C1691.63 24.0578 1692.15 22.7364 1692.51 22.034C1692.87 21.3316 1693.71 20.0366 1694.39 19.1562C1695.06 18.2759 1696.18 17.0983 1696.87 16.5379C1697.56 15.9775 1698.69 15.1975 1699.38 14.8037C1700.06 14.4099 1701.19 13.8665 1701.88 13.5977C1702.57 13.3269 1703.78 12.9786 1704.58 12.8196Z" fill="#F4E9DB"/>
<path d="M1803.34 13.5579C1804.09 13.2815 1805.21 12.9445 1805.85 12.8082C1806.48 12.67 1808.09 12.5507 1809.41 12.5431C1810.93 12.5318 1812.27 12.6302 1813.03 12.8063C1813.69 12.9615 1814.9 13.3402 1815.72 13.6469C1816.55 13.9536 1817.91 14.6465 1818.76 15.1842C1819.61 15.7219 1821.08 16.9411 1822.04 17.8916C1822.99 18.8439 1824.1 20.1748 1824.5 20.8526C1824.9 21.5285 1825.48 22.742 1825.8 23.5486C1826.11 24.3551 1826.5 25.7618 1826.66 26.6724C1826.82 27.5831 1826.95 28.9689 1826.95 29.7489C1826.95 30.5309 1826.86 31.7236 1826.75 32.3995C1826.64 33.0773 1826.31 34.3117 1826.02 35.1447C1825.73 35.9777 1825.11 37.3409 1824.63 38.1739C1824 39.2795 1823.23 40.2243 1821.75 41.6764C1820.52 42.8824 1819.23 43.9445 1818.47 44.378C1817.78 44.7699 1816.57 45.3379 1815.77 45.6389C1814.98 45.94 1813.66 46.3224 1812.83 46.4871C1812 46.6537 1810.42 46.7862 1809.27 46.7843C1808.13 46.7825 1806.59 46.6537 1805.85 46.4985C1805.11 46.3432 1804.02 46.0384 1803.44 45.8226C1802.86 45.6049 1801.95 45.2111 1801.42 44.946C1800.89 44.681 1800.06 44.2058 1799.59 43.8877C1799.11 43.5696 1798.08 42.7082 1797.3 41.9717C1796.52 41.2371 1795.55 40.1656 1795.16 39.5938C1794.76 39.0221 1794.19 38.083 1793.9 37.5112C1793.6 36.9395 1793.2 36.0004 1792.99 35.4287C1792.79 34.8569 1792.5 33.8118 1792.35 33.1095C1792.19 32.4071 1792.07 30.936 1792.07 29.8436C1792.07 28.7512 1792.21 27.195 1792.37 26.3884C1792.54 25.5819 1792.93 24.2831 1793.24 23.5012C1793.55 22.7212 1794.13 21.5531 1794.52 20.9094C1794.92 20.2638 1795.73 19.1733 1796.31 18.486C1796.89 17.7988 1797.89 16.8275 1798.53 16.3296C1799.16 15.8317 1800.2 15.1179 1800.84 14.7412C1801.47 14.3663 1802.6 13.8343 1803.34 13.5579Z" fill="#F4E9DB"/>
<path d="M1630.85 18.2475C1630.38 17.2838 1630 16.4527 1630 16.4016C1630 16.3505 1642.31 16.3069 1657.36 16.3069C1672.42 16.3069 1684.7 16.3713 1684.67 16.4489C1684.64 16.5265 1684.22 17.3993 1683.73 18.3895C1683.24 19.3796 1682.58 20.9548 1682.27 21.892C1681.95 22.8291 1681.54 24.321 1681.37 25.2052C1681.2 26.0912 1681 27.7516 1680.94 28.897C1680.87 30.1011 1680.92 31.8183 1681.05 32.9675C1681.18 34.0599 1681.46 35.6369 1681.67 36.47C1681.89 37.303 1682.37 38.793 1682.74 39.7831C1683.12 40.7733 1683.68 42.0721 1684.54 43.7589H1630L1630.5 42.6703C1630.78 42.0721 1631.35 40.6862 1631.78 39.5938C1632.2 38.5014 1632.77 36.6687 1633.05 35.5233C1633.48 33.7039 1633.54 33.0205 1633.54 30.1276C1633.55 27.6929 1633.46 26.3638 1633.2 25.1105C1633.01 24.1733 1632.6 22.6398 1632.28 21.7027C1631.97 20.7655 1631.32 19.2111 1630.85 18.2475Z" fill="#F4E9DB"/>
<path d="M1732.4 18.1528C1731.94 17.2422 1731.56 16.4527 1731.56 16.4016C1731.56 16.3505 1743.79 16.3069 1758.73 16.3069C1776.72 16.3069 1785.9 16.3713 1785.9 16.4962C1785.9 16.6004 1785.54 17.388 1785.11 18.2475C1784.67 19.107 1783.98 20.7901 1783.57 21.9866C1783.16 23.1851 1782.69 25.0594 1782.51 26.1518C1782.28 27.6569 1782.23 28.897 1782.31 31.2635C1782.37 33.0337 1782.55 34.961 1782.72 35.7127C1782.89 36.4416 1783.32 37.8899 1783.67 38.9312C1784.02 39.9725 1784.63 41.4416 1785.01 42.197C1785.4 42.9524 1785.71 43.6132 1785.71 43.6643C1785.71 43.7154 1773.52 43.7589 1731.56 43.7589L1732.02 42.8597C1732.28 42.3655 1732.85 41.0649 1733.29 39.9725C1733.73 38.8801 1734.3 37.1326 1734.56 36.0913C1734.81 35.05 1735.1 33.3026 1735.2 32.2102C1735.3 31.0174 1735.3 29.3135 1735.2 27.9504C1735.1 26.7008 1734.86 24.9969 1734.65 24.1639C1734.45 23.3308 1734.05 22.0113 1733.76 21.2293C1733.48 20.4493 1732.86 19.0635 1732.4 18.1528Z" fill="#F4E9DB"/>
<path d="M491.294 12.8195C492.088 12.6624 492.999 12.4958 493.317 12.4503C493.635 12.403 494.718 12.4087 495.726 12.4598C496.732 12.5128 498.164 12.7078 498.906 12.8934C499.648 13.0789 500.862 13.4803 501.604 13.7851C502.346 14.088 503.647 14.798 504.494 15.3621C505.342 15.9263 506.578 16.9222 507.241 17.5772C507.902 18.2323 508.852 19.3853 509.349 20.1407C509.846 20.8961 510.488 22.0245 510.777 22.6492C511.064 23.274 511.486 24.4668 511.713 25.2998C511.939 26.1328 512.174 27.7099 512.234 28.8023C512.313 30.2128 512.253 31.2995 512.031 32.5414C511.86 33.5051 511.461 34.9534 511.147 35.76C510.831 36.5665 510.245 37.7706 509.846 38.4351C509.445 39.0996 508.642 40.2015 508.06 40.8831C507.476 41.5646 506.393 42.5775 505.651 43.1341C504.909 43.6889 503.564 44.52 502.664 44.98C501.762 45.4382 500.332 46.0119 499.484 46.2542C498.127 46.6404 497.547 46.6915 494.666 46.6802C491.616 46.6688 491.276 46.631 489.752 46.1387C488.85 45.8471 487.594 45.3511 486.958 45.0387C486.322 44.7264 485.281 44.1054 484.645 43.6586C484.009 43.2099 482.955 42.3049 482.304 41.646C481.651 40.9853 480.716 39.8494 480.226 39.1205C479.737 38.3916 479.066 37.1572 478.737 36.3753C478.407 35.5952 477.968 34.1469 477.76 33.1567C477.457 31.7217 477.399 30.8792 477.475 28.9916C477.546 27.193 477.688 26.2275 478.072 24.9685C478.348 24.0578 478.866 22.7363 479.224 22.0339C479.583 21.3315 480.427 20.0366 481.103 19.1562C481.78 18.2758 482.895 17.0982 483.585 16.5378C484.273 15.9774 485.401 15.1974 486.091 14.8036C486.779 14.4098 487.906 13.8665 488.596 13.5976C489.284 13.3269 490.498 12.9785 491.294 12.8195Z" fill="#F4E9DB"/>
<path d="M793.946 13.1092C794.688 12.8896 795.902 12.6359 796.644 12.545C797.385 12.4541 798.208 12.3689 798.474 12.3557C798.738 12.3443 799.692 12.4163 800.594 12.5166C801.494 12.6169 802.839 12.8801 803.581 13.1035C804.323 13.3269 805.493 13.7813 806.183 14.1145C806.871 14.4458 807.954 15.0535 808.588 15.4644C809.222 15.8752 810.295 16.7234 810.973 17.3482C811.652 17.9729 812.717 19.2509 813.344 20.188C813.97 21.1252 814.731 22.5319 815.038 23.3119C815.342 24.0938 815.741 25.4569 815.924 26.3411C816.177 27.5792 816.231 28.5164 816.15 30.4115C816.078 32.1174 815.918 33.3082 815.629 34.2927C815.4 35.0746 814.783 36.521 814.257 37.5112C813.733 38.5014 812.764 39.9421 812.103 40.7165C811.444 41.4908 810.297 42.5775 809.555 43.1341C808.813 43.6889 807.468 44.52 806.568 44.98C805.666 45.4382 804.236 46.0119 803.388 46.2542C802.032 46.6404 801.452 46.6915 798.571 46.6802C795.518 46.6688 795.181 46.631 793.657 46.1368C792.755 45.8453 791.454 45.3284 790.766 44.9876C790.076 44.6468 788.97 43.9747 788.309 43.4957C787.646 43.0149 786.705 42.2178 786.216 41.7237C785.728 41.2295 784.956 40.3132 784.495 39.6884C784.036 39.0637 783.296 37.7857 782.849 36.8486C782.375 35.8546 781.89 34.4347 781.681 33.4407C781.47 32.4165 781.327 30.9246 781.325 29.7016C781.323 28.5827 781.444 27.0491 781.595 26.2937C781.743 25.5383 782.096 24.3248 782.379 23.5959C782.66 22.867 783.2 21.7594 783.576 21.1346C783.954 20.5099 784.628 19.5292 785.075 18.9574C785.522 18.3857 786.357 17.4996 786.931 16.9922C787.503 16.4848 788.492 15.7219 789.128 15.2997C789.764 14.8775 790.804 14.3 791.44 14.0179C792.076 13.7377 793.204 13.3269 793.946 13.1092Z" fill="#F4E9DB"/>
<path d="M590.058 13.5579C590.8 13.2815 591.927 12.9445 592.563 12.8082C593.199 12.67 594.802 12.5507 596.128 12.5431C597.645 12.5317 598.982 12.6302 599.742 12.8063C600.403 12.9615 601.617 13.3402 602.44 13.6469C603.261 13.9536 604.627 14.6465 605.475 15.1842C606.323 15.7219 607.797 16.9411 608.751 17.8915C609.705 18.8438 610.811 20.1748 611.212 20.8525C611.611 21.5284 612.197 22.742 612.513 23.5485C612.827 24.3551 613.218 25.7617 613.378 26.6724C613.538 27.583 613.667 28.9689 613.665 29.7489C613.663 30.5308 613.571 31.7236 613.461 32.3994C613.351 33.0772 613.023 34.3116 612.734 35.1446C612.447 35.9777 611.823 37.3408 611.349 38.1738C610.718 39.2795 609.94 40.2242 608.462 41.6763C607.234 42.8823 605.945 43.9444 605.186 44.378C604.496 44.7699 603.282 45.3379 602.488 45.6389C601.692 45.9399 600.37 46.3224 599.549 46.4871C598.718 46.6537 597.134 46.7862 595.984 46.7843C594.843 46.7824 593.305 46.6537 592.563 46.4984C591.821 46.3432 590.736 46.0384 590.154 45.8225C589.57 45.6048 588.661 45.211 588.131 44.946C587.601 44.6809 586.776 44.2057 586.3 43.8876C585.822 43.5696 584.793 42.7082 584.013 41.9717C583.232 41.2371 582.269 40.1655 581.872 39.5938C581.475 39.022 580.908 38.083 580.613 37.5112C580.318 36.9394 579.912 36.0004 579.709 35.4286C579.509 34.8569 579.216 33.8118 579.064 33.1094C578.91 32.407 578.784 30.936 578.784 29.8436C578.784 28.7512 578.921 27.1949 579.089 26.3884C579.258 25.5819 579.648 24.2831 579.956 23.5012C580.262 22.7212 580.841 21.5531 581.239 20.9093C581.636 20.2638 582.44 19.1732 583.024 18.486C583.606 17.7987 584.604 16.8275 585.24 16.3296C585.876 15.8317 586.917 15.1179 587.553 14.7412C588.189 14.3663 589.316 13.8343 590.058 13.5579Z" fill="#F4E9DB"/>
<path d="M691.135 13.6734C692.035 13.3326 693.293 12.9407 693.929 12.8063C694.565 12.6699 696.126 12.5507 697.398 12.5431C698.691 12.5336 700.261 12.6416 700.963 12.7873C701.651 12.9312 702.909 13.308 703.757 13.626C704.605 13.946 705.993 14.6484 706.84 15.1899C707.688 15.7294 708.976 16.7347 709.7 17.422C710.427 18.1111 711.483 19.355 712.049 20.188C712.614 21.0211 713.335 22.299 713.651 23.0279C713.967 23.7568 714.381 24.9079 714.572 25.5838C714.836 26.5209 714.917 27.4903 714.915 29.6542C714.909 32.2044 714.855 32.6683 714.379 34.198C714.088 35.1352 713.485 36.5835 713.036 37.4165C712.589 38.2496 711.828 39.4423 711.344 40.0671C710.86 40.6919 709.908 41.6991 709.23 42.3068C708.552 42.9145 707.39 43.7816 706.648 44.236C705.906 44.6885 704.647 45.3152 703.853 45.6256C703.058 45.9361 701.736 46.3242 700.915 46.489C700.092 46.6537 698.51 46.7881 697.398 46.7881C696.284 46.7881 694.788 46.665 694.073 46.5136C693.357 46.3621 692.252 46.0592 691.616 45.8415C690.98 45.6219 689.895 45.1485 689.207 44.7888C688.518 44.4291 687.352 43.6889 686.617 43.1417C685.881 42.5965 684.798 41.5836 684.209 40.8925C683.619 40.2015 682.809 39.094 682.411 38.4313C682.01 37.7687 681.432 36.5892 681.125 35.8073C680.819 35.0273 680.418 33.6641 680.235 32.7781C679.982 31.5494 679.93 30.6539 680.015 28.9916C680.085 27.6493 680.285 26.271 680.539 25.3944C680.765 24.6144 681.231 23.3781 681.572 22.6492C681.915 21.9203 682.574 20.7711 683.039 20.0934C683.503 19.4175 684.409 18.3213 685.051 17.6605C685.694 16.9998 686.957 15.9718 687.858 15.3773C688.758 14.7828 690.233 14.016 691.135 13.6734Z" fill="#F4E9DB"/>
<path d="M417.569 18.2474C417.098 17.2838 416.715 16.4527 416.715 16.4015C416.715 16.3504 429.029 16.3069 444.08 16.3069C459.13 16.3069 471.418 16.3712 471.387 16.4489C471.354 16.5265 470.93 17.3993 470.444 18.3894C469.957 19.3796 469.298 20.9548 468.98 21.8919C468.66 22.8291 468.257 24.321 468.084 25.2051C467.91 26.0912 467.716 27.7515 467.652 28.8969C467.585 30.101 467.635 31.8182 467.768 32.9674C467.897 34.0598 468.174 35.6369 468.388 36.4699C468.602 37.3029 469.084 38.7929 469.46 39.7831C469.835 40.7733 470.392 42.072 471.252 43.7589H416.715L417.218 42.6703C417.493 42.072 418.068 40.6862 418.492 39.5938C418.916 38.5014 419.488 36.6687 419.762 35.5233C420.195 33.7039 420.259 33.0204 420.259 30.1276C420.261 27.6928 420.17 26.3638 419.914 25.1105C419.725 24.1733 419.311 22.6398 418.997 21.7026C418.68 20.7655 418.039 19.2111 417.569 18.2474Z" fill="#F4E9DB"/>
<path d="M519.115 18.1528C518.651 17.2421 518.273 16.4527 518.273 16.4015C518.273 16.3504 530.501 16.3069 545.445 16.3069C563.431 16.3069 572.618 16.3712 572.618 16.4962C572.618 16.6003 572.259 17.3879 571.822 18.2474C571.384 19.107 570.692 20.7901 570.284 21.9866C569.877 23.185 569.401 25.0593 569.23 26.1517C568.995 27.6569 568.945 28.8969 569.025 31.2635C569.085 33.0337 569.263 34.961 569.436 35.7126C569.604 36.4415 570.031 37.8899 570.384 38.9311C570.739 39.9724 571.342 41.4416 571.725 42.197C572.111 42.9524 572.425 43.6131 572.425 43.6642C572.425 43.7154 560.24 43.7589 518.273 43.7589L518.736 42.8596C518.99 42.3655 519.561 41.0648 520.004 39.9724C520.447 38.88 521.019 37.1326 521.272 36.0913C521.526 35.05 521.813 33.3025 521.912 32.2101C522.018 31.0174 522.018 29.3135 521.914 27.9503C521.817 26.7008 521.572 24.9969 521.368 24.1638C521.166 23.3308 520.765 22.0112 520.478 21.2293C520.193 20.4493 519.58 19.0634 519.115 18.1528Z" fill="#F4E9DB"/>
<path d="M620.722 18.4368C620.233 17.4731 619.832 16.6003 619.832 16.4962C619.832 16.3712 628.985 16.3069 646.908 16.3069C661.798 16.3069 673.985 16.3277 673.987 16.3542C673.991 16.3807 673.606 17.1683 673.133 18.1055C672.661 19.0426 671.973 20.7049 671.603 21.7973C671.233 22.8897 670.794 24.5936 670.624 25.5838C670.439 26.6686 670.318 28.5088 670.318 30.2222C670.318 31.9356 670.439 33.7758 670.624 34.8607C670.794 35.8508 671.233 37.5547 671.601 38.6472C671.969 39.7396 672.613 41.3375 673.791 43.7589H646.811C631.972 43.7589 619.83 43.7381 619.826 43.7116C619.824 43.6851 620.163 42.9391 620.579 42.055C620.996 41.1708 621.608 39.679 621.942 38.7418C622.273 37.8047 622.732 36.1859 622.957 35.1446C623.281 33.6471 623.37 32.5774 623.376 30.0329C623.381 27.6531 623.293 26.3714 623.035 25.1105C622.842 24.1733 622.443 22.6833 622.148 21.7973C621.853 20.9131 621.211 19.4004 620.722 18.4368Z" fill="#F4E9DB"/>
<path d="M722.003 18.3894C721.517 17.3993 721.084 16.5265 721.039 16.4489C720.995 16.3712 733.153 16.3069 748.057 16.3069C762.962 16.3069 775.158 16.3712 775.16 16.4489C775.164 16.5265 774.736 17.4864 774.21 18.5788C773.684 19.6712 772.996 21.4186 772.682 22.4599C772.366 23.5012 771.971 25.2487 771.803 26.3411C771.635 27.4335 771.499 29.1374 771.501 30.1276C771.501 31.1177 771.626 32.8216 771.776 33.914C771.926 35.0064 772.304 36.7104 772.614 37.7005C772.925 38.6907 773.353 39.9251 773.566 40.4457C773.78 40.9664 774.226 41.9244 775.156 43.7589H721.005L721.947 41.8183C722.465 40.7505 723.107 39.1962 723.375 38.3632C723.643 37.5301 724.053 35.9531 724.285 34.8607C724.603 33.3574 724.707 32.2025 724.711 30.1276C724.714 28.4085 724.599 26.7273 724.402 25.6311C724.229 24.6674 723.816 23.0487 723.487 22.0339C723.155 21.0192 722.489 19.3796 722.003 18.3894Z" fill="#F4E9DB"/>
<path d="M87.579 12.8185C88.3729 12.6614 89.2844 12.4948 89.6024 12.4494C89.9204 12.402 91.0034 12.4077 92.0113 12.4588C93.0172 12.5118 94.4491 12.7068 95.191 12.8924C95.933 13.0779 97.147 13.4793 97.889 13.7841C98.6309 14.087 99.9317 14.797 100.78 15.3612C101.628 15.9254 102.863 16.9212 103.526 17.5763C104.187 18.2313 105.137 19.3843 105.634 20.1397C106.131 20.8951 106.773 22.0235 107.062 22.6483C107.349 23.273 107.771 24.4658 107.999 25.2988C108.224 26.1318 108.459 27.7089 108.519 28.8013C108.598 30.2118 108.538 31.2985 108.317 32.5405C108.145 33.5041 107.746 34.9525 107.432 35.759C107.116 36.5655 106.53 37.7696 106.131 38.4341C105.73 39.0987 104.927 40.2005 104.345 40.8821C103.761 41.5637 102.678 42.5765 101.936 43.1332C101.194 43.6879 99.8488 44.519 98.9489 44.9791C98.047 45.4372 96.6171 46.0109 95.7691 46.2532C94.4125 46.6395 93.8324 46.6906 90.9514 46.6792C87.9008 46.6678 87.5616 46.63 86.0373 46.1377C85.1354 45.8462 83.8789 45.3501 83.243 45.0378C82.607 44.7254 81.5664 44.1044 80.9304 43.6576C80.2945 43.2089 79.2404 42.3039 78.589 41.6451C77.9357 40.9843 77.0011 39.8484 76.5116 39.1195C76.0221 38.3906 75.3515 37.1562 75.0219 36.3743C74.6924 35.5943 74.253 34.1459 74.0449 33.1558C73.7423 31.7207 73.6845 30.8782 73.7597 28.9906C73.831 27.1921 73.9736 26.2265 74.3571 24.9675C74.6327 24.0568 75.1511 22.7353 75.5095 22.033C75.8679 21.3306 76.712 20.0356 77.3884 19.1552C78.0648 18.2749 79.1806 17.0973 79.8705 16.5369C80.5585 15.9765 81.6859 15.1965 82.3758 14.8027C83.0637 14.4089 84.1911 13.8655 84.881 13.5967C85.569 13.3259 86.7831 12.9776 87.579 12.8185Z" fill="#F4E9DB"/>
<path d="M390.231 13.1082C390.973 12.8886 392.187 12.6349 392.929 12.544C393.671 12.4531 394.494 12.3679 394.759 12.3547C395.023 12.3433 395.977 12.4153 396.879 12.5156C397.779 12.616 399.124 12.8791 399.866 13.1025C400.608 13.3259 401.778 13.7803 402.468 14.1135C403.156 14.4448 404.239 15.0526 404.873 15.4634C405.507 15.8742 406.58 16.7224 407.259 17.3472C407.937 17.9719 409.003 19.2499 409.629 20.187C410.255 21.1242 411.017 22.5309 411.323 23.3109C411.627 24.0928 412.026 25.4559 412.209 26.3401C412.462 27.5783 412.516 28.5154 412.435 30.4106C412.364 32.1164 412.204 33.3072 411.915 34.2917C411.685 35.0736 411.069 36.5201 410.542 37.5102C410.018 38.5004 409.049 39.9412 408.388 40.7155C407.729 41.4898 406.582 42.5765 405.84 43.1332C405.098 43.6879 403.753 44.519 402.853 44.9791C401.951 45.4372 400.521 46.0109 399.674 46.2532C398.317 46.6395 397.737 46.6906 394.856 46.6792C391.803 46.6678 391.466 46.63 389.942 46.1358C389.04 45.8443 387.739 45.3274 387.051 44.9866C386.361 44.6459 385.255 43.9738 384.594 43.4948C383.931 43.0139 382.991 42.2168 382.501 41.7227C382.014 41.2286 381.241 40.3122 380.78 39.6875C380.322 39.0627 379.582 37.7847 379.134 36.8476C378.66 35.8536 378.175 34.4337 377.967 33.4398C377.755 32.4155 377.612 30.9236 377.61 29.7006C377.608 28.5817 377.73 27.0482 377.88 26.2928C378.028 25.5374 378.381 24.3238 378.664 23.5949C378.946 22.866 379.485 21.7584 379.861 21.1337C380.239 20.5089 380.913 19.5282 381.36 18.9564C381.807 18.3847 382.642 17.4986 383.216 16.9912C383.788 16.4839 384.777 15.7209 385.413 15.2987C386.049 14.8765 387.09 14.2991 387.726 14.017C388.361 13.7368 389.489 13.3259 390.231 13.1082Z" fill="#F4E9DB"/>
<path d="M186.343 13.5569C187.085 13.2805 188.212 12.9435 188.848 12.8072C189.484 12.669 191.088 12.5497 192.413 12.5421C193.93 12.5308 195.268 12.6292 196.027 12.8053C196.688 12.9605 197.902 13.3392 198.725 13.6459C199.546 13.9526 200.912 14.6455 201.76 15.1832C202.608 15.7209 204.082 16.9401 205.036 17.8905C205.99 18.8428 207.096 20.1738 207.497 20.8516C207.896 21.5275 208.482 22.741 208.798 23.5476C209.112 24.3541 209.503 25.7608 209.663 26.6714C209.823 27.5821 209.952 28.9679 209.95 29.7479C209.948 30.5298 209.856 31.7226 209.746 32.3985C209.636 33.0763 209.308 34.3106 209.019 35.1437C208.732 35.9767 208.108 37.3398 207.634 38.1729C207.004 39.2785 206.225 40.2232 204.747 41.6754C203.519 42.8814 202.23 43.9435 201.471 44.377C200.781 44.7689 199.567 45.3369 198.773 45.6379C197.977 45.9389 196.655 46.3214 195.834 46.4861C195.003 46.6527 193.419 46.7852 192.269 46.7833C191.128 46.7814 189.59 46.6527 188.848 46.4975C188.106 46.3422 187.021 46.0374 186.439 45.8216C185.856 45.6038 184.946 45.21 184.416 44.945C183.886 44.6799 183.061 44.2047 182.585 43.8867C182.107 43.5686 181.078 42.7072 180.298 41.9707C179.517 41.2361 178.554 40.1646 178.157 39.5928C177.76 39.021 177.193 38.082 176.898 37.5102C176.603 36.9385 176.197 35.9994 175.995 35.4277C175.794 34.8559 175.501 33.8108 175.349 33.1084C175.195 32.406 175.07 30.935 175.07 29.8426C175.07 28.7502 175.206 27.1939 175.374 26.3874C175.544 25.5809 175.933 24.2821 176.241 23.5002C176.548 22.7202 177.126 21.5521 177.525 20.9084C177.922 20.2628 178.725 19.1723 179.309 18.485C179.891 17.7978 180.889 16.8265 181.525 16.3286C182.161 15.8307 183.202 15.1169 183.838 14.7402C184.474 14.3653 185.601 13.8333 186.343 13.5569Z" fill="#F4E9DB"/>
<path d="M287.42 13.6724C288.32 13.3316 289.578 12.9397 290.214 12.8053C290.85 12.669 292.411 12.5497 293.683 12.5421C294.976 12.5327 296.546 12.6406 297.248 12.7864C297.936 12.9302 299.194 13.307 300.042 13.6251C300.89 13.945 302.278 14.6474 303.126 15.1889C303.974 15.7285 305.261 16.7338 305.985 17.421C306.712 18.1102 307.768 19.354 308.335 20.187C308.899 21.0201 309.62 22.298 309.936 23.0269C310.252 23.7558 310.666 24.9069 310.857 25.5828C311.121 26.5199 311.202 27.4893 311.2 29.6533C311.194 32.2035 311.14 32.6673 310.664 34.1971C310.373 35.1342 309.77 36.5825 309.321 37.4156C308.874 38.2486 308.113 39.4413 307.629 40.0661C307.146 40.6909 306.194 41.6981 305.515 42.3058C304.837 42.9135 303.675 43.7806 302.933 44.235C302.191 44.6875 300.933 45.3142 300.139 45.6247C299.343 45.9352 298.021 46.3233 297.2 46.488C296.377 46.6527 294.795 46.7871 293.683 46.7871C292.569 46.7871 291.074 46.6641 290.359 46.5126C289.642 46.3611 288.537 46.0582 287.901 45.8405C287.266 45.6209 286.181 45.1476 285.493 44.7878C284.803 44.4281 283.637 43.6879 282.903 43.1407C282.166 42.5955 281.083 41.5826 280.494 40.8916C279.904 40.2005 279.095 39.093 278.696 38.4303C278.295 37.7677 277.717 36.5882 277.41 35.8063C277.104 35.0263 276.703 33.6632 276.52 32.7771C276.268 31.5484 276.216 30.6529 276.3 28.9906C276.37 27.6483 276.57 26.27 276.824 25.3935C277.05 24.6134 277.516 23.3772 277.857 22.6483C278.2 21.9194 278.859 20.7702 279.324 20.0924C279.788 19.4165 280.694 18.3203 281.336 17.6596C281.979 16.9988 283.242 15.9708 284.144 15.3763C285.044 14.7818 286.518 14.0151 287.42 13.6724Z" fill="#F4E9DB"/>
<path d="M13.8537 18.2465C13.3835 17.2828 13 16.4517 13 16.4006C13 16.3494 25.3142 16.3059 40.3649 16.3059C55.4156 16.3059 67.7028 16.3703 67.672 16.4479C67.6392 16.5255 67.2152 17.3983 66.7296 18.3885C66.2421 19.3786 65.583 20.9538 65.265 21.891C64.9451 22.8281 64.5423 24.32 64.3689 25.2041C64.1955 26.0902 64.0008 27.7506 63.9372 28.896C63.8698 30.1001 63.9199 31.8172 64.0529 32.9664C64.182 34.0588 64.4595 35.6359 64.6734 36.4689C64.8873 37.302 65.3691 38.792 65.7449 39.7821C66.1206 40.7723 66.6776 42.071 67.5371 43.7579H13L13.503 42.6693C13.7786 42.0711 14.3528 40.6852 14.7768 39.5928C15.2008 38.5004 15.7731 36.6677 16.0468 35.5223C16.4804 33.7029 16.5439 33.0195 16.5439 30.1266C16.5459 27.6919 16.4553 26.3628 16.199 25.1095C16.0101 24.1723 15.5958 22.6388 15.2817 21.7016C14.9656 20.7645 14.3239 19.2101 13.8537 18.2465Z" fill="#F4E9DB"/>
<path d="M115.401 18.1518C114.936 17.2412 114.558 16.4517 114.558 16.4006C114.558 16.3494 126.786 16.3059 141.731 16.3059C159.716 16.3059 168.903 16.3703 168.903 16.4952C168.903 16.5993 168.544 17.3869 168.107 18.2465C167.669 19.106 166.978 20.7891 166.569 21.9856C166.162 23.1841 165.686 25.0584 165.515 26.1508C165.28 27.6559 165.23 28.896 165.311 31.2625C165.37 33.0327 165.548 34.96 165.721 35.7116C165.889 36.4405 166.317 37.8889 166.669 38.9302C167.024 39.9714 167.627 41.4406 168.011 42.196C168.396 42.9514 168.71 43.6121 168.71 43.6633C168.71 43.7144 156.525 43.7579 114.558 43.7579L115.021 42.8586C115.275 42.3645 115.846 41.0638 116.289 39.9714C116.732 38.879 117.305 37.1316 117.557 36.0903C117.811 35.049 118.099 33.3015 118.197 32.2091C118.303 31.0164 118.303 29.3125 118.199 27.9493C118.102 26.6998 117.858 24.9959 117.653 24.1629C117.451 23.3298 117.05 22.0102 116.763 21.2283C116.478 20.4483 115.865 19.0625 115.401 18.1518Z" fill="#F4E9DB"/>
<path d="M217.007 18.4358C216.518 17.4721 216.117 16.5993 216.117 16.4952C216.117 16.3703 225.271 16.3059 243.193 16.3059C258.083 16.3059 270.27 16.3267 270.272 16.3532C270.276 16.3797 269.891 17.1673 269.419 18.1045C268.946 19.0416 268.259 20.7039 267.889 21.7963C267.519 22.8887 267.079 24.5926 266.91 25.5828C266.725 26.6676 266.603 28.5079 266.603 30.2212C266.603 31.9346 266.725 33.7749 266.91 34.8597C267.079 35.8498 267.519 37.5538 267.887 38.6462C268.255 39.7386 268.898 41.3365 270.076 43.7579H243.096C228.258 43.7579 216.115 43.7371 216.111 43.7106C216.109 43.6841 216.448 42.9382 216.865 42.054C217.281 41.1699 217.894 39.678 218.227 38.7408C218.558 37.8037 219.017 36.185 219.243 35.1437C219.566 33.6461 219.655 32.5764 219.661 30.0319C219.667 27.6521 219.578 26.3704 219.32 25.1095C219.127 24.1723 218.728 22.6823 218.433 21.7963C218.138 20.9122 217.497 19.3995 217.007 18.4358Z" fill="#F4E9DB"/>
<path d="M318.288 18.3885C317.802 17.3983 317.369 16.5255 317.325 16.4479C317.28 16.3703 329.438 16.3059 344.343 16.3059C359.247 16.3059 371.443 16.3703 371.445 16.4479C371.449 16.5255 371.021 17.4854 370.495 18.5778C369.969 19.6702 369.281 21.4177 368.967 22.4589C368.651 23.5002 368.256 25.2477 368.088 26.3401C367.921 27.4325 367.784 29.1364 367.786 30.1266C367.786 31.1167 367.911 32.8207 368.061 33.9131C368.212 35.0055 368.589 36.7094 368.9 37.6996C369.21 38.6897 369.638 39.9241 369.852 40.4448C370.066 40.9654 370.511 41.9234 371.441 43.7579H317.29L318.232 41.8174C318.751 40.7496 319.392 39.1952 319.66 38.3622C319.928 37.5292 320.339 35.9521 320.57 34.8597C320.888 33.3564 320.992 32.2016 320.996 30.1266C321 28.4075 320.884 26.7263 320.687 25.6301C320.514 24.6665 320.101 23.0477 319.772 22.033C319.44 21.0182 318.774 19.3786 318.288 18.3885Z" fill="#F4E9DB"/>
<defs>
<radialGradient id="paint0_radial_2101_2" cx="0" cy="0" r="1" gradientTransform="matrix(-800.806 66.9963 -1030.71 -177.307 917.792 59.0984)" gradientUnits="userSpaceOnUse">
<stop stop-color="#07423F"/>
<stop offset="1" stop-color="#022120"/>
</radialGradient>
</defs>
</svg>
