<svg width="1534" height="59" viewBox="0 0 1534 59" fill="none" xmlns="http://www.w3.org/2000/svg">
<path d="M1775 0H-126V59H1775V0Z" fill="url(#paint0_radial_2073_466)"/>
<path d="M808.009 12.8195C808.803 12.6624 809.714 12.4958 810.032 12.4503C810.35 12.403 811.433 12.4087 812.441 12.4598C813.447 12.5128 814.879 12.7078 815.621 12.8934C816.363 13.0789 817.577 13.4803 818.319 13.7851C819.061 14.088 820.361 14.798 821.209 15.3621C822.057 15.9263 823.293 16.9222 823.955 17.5772C824.616 18.2323 825.566 19.3853 826.064 20.1407C826.561 20.8961 827.203 22.0245 827.492 22.6492C827.779 23.274 828.201 24.4668 828.428 25.2998C828.654 26.1328 828.889 27.7099 828.949 28.8023C829.028 30.2128 828.968 31.2995 828.746 32.5414C828.575 33.5051 828.176 34.9534 827.862 35.76C827.546 36.5665 826.96 37.7706 826.561 38.4351C826.16 39.0996 825.356 40.2015 824.774 40.8831C824.191 41.5646 823.108 42.5775 822.366 43.1341C821.624 43.6889 820.279 44.52 819.379 44.98C818.477 45.4382 817.047 46.0119 816.199 46.2542C814.842 46.6404 814.262 46.6915 811.381 46.6802C808.33 46.6688 807.991 46.631 806.467 46.1387C805.565 45.8471 804.309 45.3511 803.673 45.0387C803.037 44.7264 801.996 44.1054 801.36 43.6586C800.724 43.2099 799.67 42.3049 799.019 41.646C798.365 40.9853 797.431 39.8494 796.941 39.1205C796.452 38.3916 795.781 37.1572 795.452 36.3753C795.122 35.5952 794.683 34.1469 794.475 33.1567C794.172 31.7217 794.114 30.8792 794.189 28.9916C794.261 27.193 794.403 26.2275 794.787 24.9685C795.062 24.0578 795.581 22.7363 795.939 22.0339C796.298 21.3315 797.142 20.0366 797.818 19.1562C798.495 18.2758 799.61 17.0982 800.3 16.5378C800.988 15.9774 802.116 15.1974 802.805 14.8036C803.493 14.4098 804.621 13.8665 805.311 13.5976C805.999 13.3269 807.213 12.9785 808.009 12.8195Z" fill="#F4E9DB"/>
<path d="M1110.66 13.1092C1111.4 12.8896 1112.62 12.6359 1113.36 12.545C1114.1 12.4541 1114.92 12.3689 1115.19 12.3557C1115.45 12.3443 1116.41 12.4163 1117.31 12.5166C1118.21 12.6169 1119.55 12.8801 1120.3 13.1035C1121.04 13.3269 1122.21 13.7813 1122.9 14.1145C1123.59 14.4458 1124.67 15.0535 1125.3 15.4644C1125.94 15.8752 1127.01 16.7234 1127.69 17.3482C1128.37 17.9729 1129.43 19.2509 1130.06 20.188C1130.68 21.1252 1131.45 22.5319 1131.75 23.3119C1132.06 24.0938 1132.46 25.4569 1132.64 26.3411C1132.89 27.5792 1132.95 28.5164 1132.86 30.4115C1132.79 32.1174 1132.63 33.3082 1132.34 34.2927C1132.11 35.0746 1131.5 36.521 1130.97 37.5112C1130.45 38.5014 1129.48 39.9421 1128.82 40.7165C1128.16 41.4908 1127.01 42.5775 1126.27 43.1341C1125.53 43.6889 1124.18 44.52 1123.28 44.98C1122.38 45.4382 1120.95 46.0119 1120.1 46.2542C1118.75 46.6404 1118.17 46.6915 1115.29 46.6802C1112.23 46.6688 1111.9 46.631 1110.37 46.1368C1109.47 45.8453 1108.17 45.3284 1107.48 44.9876C1106.79 44.6468 1105.68 43.9747 1105.02 43.4957C1104.36 43.0149 1103.42 42.2178 1102.93 41.7237C1102.44 41.2295 1101.67 40.3132 1101.21 39.6884C1100.75 39.0637 1100.01 37.7857 1099.56 36.8486C1099.09 35.8546 1098.6 34.4347 1098.4 33.4407C1098.18 32.4165 1098.04 30.9246 1098.04 29.7016C1098.04 28.5827 1098.16 27.0491 1098.31 26.2937C1098.46 25.5383 1098.81 24.3248 1099.09 23.5959C1099.38 22.867 1099.91 21.7594 1100.29 21.1346C1100.67 20.5099 1101.34 19.5292 1101.79 18.9574C1102.24 18.3857 1103.07 17.4996 1103.65 16.9922C1104.22 16.4848 1105.21 15.7219 1105.84 15.2997C1106.48 14.8775 1107.52 14.3 1108.16 14.0179C1108.79 13.7377 1109.92 13.3269 1110.66 13.1092Z" fill="#F4E9DB"/>
<path d="M906.773 13.5579C907.515 13.2815 908.642 12.9445 909.278 12.8082C909.914 12.67 911.517 12.5507 912.843 12.5431C914.36 12.5317 915.697 12.6302 916.456 12.8063C917.117 12.9615 918.332 13.3402 919.154 13.6469C919.975 13.9536 921.342 14.6465 922.19 15.1842C923.038 15.7219 924.512 16.9411 925.466 17.8915C926.42 18.8438 927.526 20.1748 927.927 20.8525C928.326 21.5284 928.911 22.742 929.227 23.5485C929.542 24.3551 929.933 25.7617 930.093 26.6724C930.253 27.583 930.382 28.9689 930.38 29.7489C930.378 30.5308 930.285 31.7236 930.176 32.3994C930.066 33.0772 929.738 34.3116 929.449 35.1446C929.162 35.9777 928.537 37.3408 928.063 38.1738C927.433 39.2795 926.655 40.2242 925.177 41.6763C923.949 42.8823 922.66 43.9444 921.901 44.378C921.211 44.7699 919.997 45.3379 919.203 45.6389C918.407 45.9399 917.085 46.3224 916.264 46.4871C915.433 46.6537 913.849 46.7862 912.699 46.7843C911.558 46.7824 910.02 46.6537 909.278 46.4984C908.536 46.3432 907.451 46.0384 906.869 45.8225C906.285 45.6048 905.376 45.211 904.846 44.946C904.316 44.6809 903.491 44.2057 903.015 43.8876C902.537 43.5696 901.508 42.7082 900.727 41.9717C899.947 41.2371 898.983 40.1655 898.586 39.5938C898.189 39.022 897.623 38.083 897.328 37.5112C897.033 36.9394 896.627 36.0004 896.424 35.4286C896.224 34.8569 895.931 33.8118 895.779 33.1094C895.624 32.407 895.499 30.936 895.499 29.8436C895.499 28.7512 895.636 27.1949 895.804 26.3884C895.973 25.5819 896.363 24.2831 896.671 23.5012C896.977 22.7212 897.555 21.5531 897.954 20.9093C898.351 20.2638 899.155 19.1732 899.739 18.486C900.321 17.7987 901.319 16.8275 901.955 16.3296C902.591 15.8317 903.632 15.1179 904.268 14.7412C904.903 14.3663 906.031 13.8343 906.773 13.5579Z" fill="#F4E9DB"/>
<path d="M1007.85 13.6734C1008.75 13.3326 1010.01 12.9407 1010.64 12.8063C1011.28 12.6699 1012.84 12.5507 1014.11 12.5431C1015.41 12.5336 1016.98 12.6416 1017.68 12.7873C1018.37 12.9312 1019.62 13.308 1020.47 13.626C1021.32 13.946 1022.71 14.6484 1023.56 15.1899C1024.4 15.7294 1025.69 16.7347 1026.42 17.422C1027.14 18.1111 1028.2 19.355 1028.76 20.188C1029.33 21.0211 1030.05 22.299 1030.37 23.0279C1030.68 23.7568 1031.1 24.9079 1031.29 25.5838C1031.55 26.5209 1031.63 27.4903 1031.63 29.6542C1031.62 32.2044 1031.57 32.6683 1031.09 34.198C1030.8 35.1352 1030.2 36.5835 1029.75 37.4165C1029.3 38.2496 1028.54 39.4423 1028.06 40.0671C1027.58 40.6919 1026.62 41.6991 1025.94 42.3068C1025.27 42.9145 1024.1 43.7816 1023.36 44.236C1022.62 44.6885 1021.36 45.3152 1020.57 45.6256C1019.77 45.9361 1018.45 46.3242 1017.63 46.489C1016.81 46.6537 1015.22 46.7881 1014.11 46.7881C1013 46.7881 1011.5 46.665 1010.79 46.5136C1010.07 46.3621 1008.97 46.0592 1008.33 45.8415C1007.7 45.6219 1006.61 45.1485 1005.92 44.7888C1005.23 44.4291 1004.07 43.6889 1003.33 43.1417C1002.6 42.5965 1001.51 41.5836 1000.92 40.8925C1000.33 40.2015 999.524 39.094 999.125 38.4313C998.725 37.7687 998.146 36.5892 997.84 35.8073C997.534 35.0273 997.133 33.6641 996.95 32.7781C996.697 31.5494 996.645 30.6539 996.73 28.9916C996.799 27.6493 997 26.271 997.254 25.3944C997.48 24.6144 997.946 23.3781 998.287 22.6492C998.63 21.9203 999.289 20.7711 999.754 20.0934C1000.22 19.4175 1001.12 18.3213 1001.77 17.6605C1002.41 16.9998 1003.67 15.9718 1004.57 15.3773C1005.47 14.7828 1006.95 14.016 1007.85 13.6734Z" fill="#F4E9DB"/>
<path d="M734.283 18.2474C733.813 17.2838 733.43 16.4527 733.43 16.4015C733.43 16.3504 745.744 16.3069 760.795 16.3069C775.845 16.3069 788.132 16.3712 788.102 16.4489C788.069 16.5265 787.645 17.3993 787.159 18.3894C786.672 19.3796 786.013 20.9548 785.695 21.8919C785.375 22.8291 784.972 24.321 784.799 25.2051C784.625 26.0912 784.431 27.7515 784.367 28.8969C784.299 30.101 784.35 31.8182 784.483 32.9674C784.612 34.0598 784.889 35.6369 785.103 36.4699C785.317 37.3029 785.799 38.7929 786.175 39.7831C786.55 40.7733 787.107 42.072 787.967 43.7589H733.43L733.933 42.6703C734.208 42.072 734.783 40.6862 735.206 39.5938C735.63 38.5014 736.203 36.6687 736.476 35.5233C736.91 33.7039 736.974 33.0204 736.974 30.1276C736.976 27.6928 736.885 26.3638 736.629 25.1105C736.44 24.1733 736.025 22.6398 735.711 21.7026C735.395 20.7655 734.754 19.2111 734.283 18.2474Z" fill="#F4E9DB"/>
<path d="M835.83 18.1528C835.366 17.2421 834.988 16.4527 834.988 16.4015C834.988 16.3504 847.216 16.3069 862.16 16.3069C880.146 16.3069 889.332 16.3712 889.332 16.4962C889.332 16.6003 888.974 17.3879 888.537 18.2474C888.099 19.107 887.407 20.7901 886.999 21.9866C886.592 23.185 886.116 25.0593 885.945 26.1517C885.71 27.6569 885.659 28.8969 885.74 31.2635C885.8 33.0337 885.977 34.961 886.151 35.7126C886.318 36.4415 886.746 37.8899 887.099 38.9311C887.454 39.9724 888.057 41.4416 888.44 42.197C888.826 42.9524 889.14 43.6131 889.14 43.6642C889.14 43.7154 876.955 43.7589 834.988 43.7589L835.451 42.8596C835.705 42.3655 836.275 41.0648 836.719 39.9724C837.162 38.88 837.734 37.1326 837.987 36.0913C838.241 35.05 838.528 33.3025 838.626 32.2101C838.732 31.0174 838.732 29.3135 838.628 27.9503C838.532 26.7008 838.287 24.9969 838.083 24.1638C837.881 23.3308 837.48 22.0112 837.193 21.2293C836.908 20.4493 836.295 19.0634 835.83 18.1528Z" fill="#F4E9DB"/>
<path d="M937.437 18.4368C936.947 17.4731 936.547 16.6003 936.547 16.4962C936.547 16.3712 945.7 16.3069 963.622 16.3069C978.513 16.3069 990.7 16.3277 990.702 16.3542C990.706 16.3807 990.32 17.1683 989.848 18.1055C989.376 19.0426 988.688 20.7049 988.318 21.7973C987.948 22.8897 987.509 24.5936 987.339 25.5838C987.154 26.6686 987.033 28.5088 987.033 30.2222C987.033 31.9356 987.154 33.7758 987.339 34.8607C987.509 35.8508 987.948 37.5547 988.316 38.6472C988.684 39.7396 989.328 41.3375 990.505 43.7589H963.526C948.687 43.7589 936.545 43.7381 936.541 43.7116C936.539 43.6851 936.878 42.9391 937.294 42.055C937.711 41.1708 938.323 39.679 938.657 38.7418C938.988 37.8047 939.447 36.1859 939.672 35.1446C939.996 33.6471 940.085 32.5774 940.09 30.0329C940.096 27.6531 940.008 26.3714 939.749 25.1105C939.557 24.1733 939.158 22.6833 938.863 21.7973C938.568 20.9131 937.926 19.4004 937.437 18.4368Z" fill="#F4E9DB"/>
<path d="M1038.72 18.3894C1038.23 17.3993 1037.8 16.5265 1037.75 16.4489C1037.71 16.3712 1049.87 16.3069 1064.77 16.3069C1079.68 16.3069 1091.87 16.3712 1091.88 16.4489C1091.88 16.5265 1091.45 17.4864 1090.92 18.5788C1090.4 19.6712 1089.71 21.4186 1089.4 22.4599C1089.08 23.5012 1088.69 25.2487 1088.52 26.3411C1088.35 27.4335 1088.21 29.1374 1088.22 30.1276C1088.22 31.1177 1088.34 32.8216 1088.49 33.914C1088.64 35.0064 1089.02 36.7104 1089.33 37.7005C1089.64 38.6907 1090.07 39.9251 1090.28 40.4457C1090.5 40.9664 1090.94 41.9244 1091.87 43.7589H1037.72L1038.66 41.8183C1039.18 40.7505 1039.82 39.1962 1040.09 38.3632C1040.36 37.5301 1040.77 35.9531 1041 34.8607C1041.32 33.3574 1041.42 32.2025 1041.43 30.1276C1041.43 28.4085 1041.31 26.7273 1041.12 25.6311C1040.94 24.6674 1040.53 23.0487 1040.2 22.0339C1039.87 21.0192 1039.2 19.3796 1038.72 18.3894Z" fill="#F4E9DB"/>
<path d="M1213.29 12.8195C1214.09 12.6624 1215 12.4958 1215.32 12.4503C1215.64 12.403 1216.72 12.4087 1217.73 12.4598C1218.73 12.5128 1220.16 12.7078 1220.91 12.8934C1221.65 13.0789 1222.86 13.4803 1223.6 13.7851C1224.35 14.088 1225.65 14.798 1226.49 15.3621C1227.34 15.9263 1228.58 16.9222 1229.24 17.5772C1229.9 18.2323 1230.85 19.3853 1231.35 20.1407C1231.85 20.8961 1232.49 22.0245 1232.78 22.6492C1233.06 23.274 1233.49 24.4668 1233.71 25.2998C1233.94 26.1328 1234.17 27.7099 1234.23 28.8023C1234.31 30.2128 1234.25 31.2995 1234.03 32.5414C1233.86 33.5051 1233.46 34.9534 1233.15 35.76C1232.83 36.5665 1232.24 37.7706 1231.85 38.4351C1231.45 39.0996 1230.64 40.2015 1230.06 40.8831C1229.48 41.5646 1228.39 42.5775 1227.65 43.1341C1226.91 43.6889 1225.56 44.52 1224.66 44.98C1223.76 45.4382 1222.33 46.0119 1221.48 46.2542C1220.13 46.6404 1219.55 46.6915 1216.67 46.6802C1213.62 46.6688 1213.28 46.631 1211.75 46.1387C1210.85 45.8471 1209.59 45.3511 1208.96 45.0387C1208.32 44.7264 1207.28 44.1054 1206.65 43.6586C1206.01 43.2099 1204.96 42.3049 1204.3 41.646C1203.65 40.9853 1202.72 39.8494 1202.23 39.1205C1201.74 38.3916 1201.07 37.1572 1200.74 36.3753C1200.41 35.5952 1199.97 34.1469 1199.76 33.1567C1199.46 31.7217 1199.4 30.8792 1199.47 28.9916C1199.55 27.193 1199.69 26.2275 1200.07 24.9685C1200.35 24.0578 1200.87 22.7363 1201.22 22.0339C1201.58 21.3315 1202.43 20.0366 1203.1 19.1562C1203.78 18.2758 1204.9 17.0982 1205.59 16.5378C1206.27 15.9774 1207.4 15.1974 1208.09 14.8036C1208.78 14.4098 1209.91 13.8665 1210.6 13.5976C1211.28 13.3269 1212.5 12.9785 1213.29 12.8195Z" fill="#F4E9DB"/>
<path d="M1515.95 13.1092C1516.69 12.8896 1517.9 12.6359 1518.64 12.545C1519.39 12.4541 1520.21 12.3689 1520.47 12.3557C1520.74 12.3443 1521.69 12.4163 1522.59 12.5166C1523.49 12.6169 1524.84 12.8801 1525.58 13.1035C1526.32 13.3269 1527.49 13.7813 1528.18 14.1145C1528.87 14.4458 1529.95 15.0535 1530.59 15.4644C1531.22 15.8752 1532.3 16.7234 1532.97 17.3482C1533.65 17.9729 1534.72 19.2509 1535.34 20.188C1535.97 21.1252 1536.73 22.5319 1537.04 23.3119C1537.34 24.0938 1537.74 25.4569 1537.92 26.3411C1538.18 27.5792 1538.23 28.5164 1538.15 30.4115C1538.08 32.1174 1537.92 33.3082 1537.63 34.2927C1537.4 35.0746 1536.78 36.521 1536.26 37.5112C1535.73 38.5014 1534.76 39.9421 1534.1 40.7165C1533.44 41.4908 1532.3 42.5775 1531.56 43.1341C1530.81 43.6889 1529.47 44.52 1528.57 44.98C1527.67 45.4382 1526.24 46.0119 1525.39 46.2542C1524.03 46.6404 1523.45 46.6915 1520.57 46.6802C1517.52 46.6688 1517.18 46.631 1515.66 46.1368C1514.75 45.8453 1513.45 45.3284 1512.77 44.9876C1512.08 44.6468 1510.97 43.9747 1510.31 43.4957C1509.65 43.0149 1508.71 42.2178 1508.22 41.7237C1507.73 41.2295 1506.96 40.3132 1506.5 39.6884C1506.04 39.0637 1505.3 37.7857 1504.85 36.8486C1504.38 35.8546 1503.89 34.4347 1503.68 33.4407C1503.47 32.4165 1503.33 30.9246 1503.32 29.7016C1503.32 28.5827 1503.44 27.0491 1503.59 26.2937C1503.74 25.5383 1504.1 24.3248 1504.38 23.5959C1504.66 22.867 1505.2 21.7594 1505.58 21.1346C1505.95 20.5099 1506.63 19.5292 1507.08 18.9574C1507.52 18.3857 1508.36 17.4996 1508.93 16.9922C1509.5 16.4848 1510.49 15.7219 1511.13 15.2997C1511.76 14.8775 1512.8 14.3 1513.44 14.0179C1514.08 13.7377 1515.2 13.3269 1515.95 13.1092Z" fill="#F4E9DB"/>
<path d="M1312.06 13.5579C1312.8 13.2815 1313.93 12.9445 1314.56 12.8082C1315.2 12.67 1316.8 12.5507 1318.13 12.5431C1319.64 12.5317 1320.98 12.6302 1321.74 12.8063C1322.4 12.9615 1323.62 13.3402 1324.44 13.6469C1325.26 13.9536 1326.63 14.6465 1327.47 15.1842C1328.32 15.7219 1329.8 16.9411 1330.75 17.8915C1331.7 18.8438 1332.81 20.1748 1333.21 20.8525C1333.61 21.5284 1334.2 22.742 1334.51 23.5485C1334.83 24.3551 1335.22 25.7617 1335.38 26.6724C1335.54 27.583 1335.67 28.9689 1335.66 29.7489C1335.66 30.5308 1335.57 31.7236 1335.46 32.3994C1335.35 33.0772 1335.02 34.3116 1334.73 35.1446C1334.45 35.9777 1333.82 37.3408 1333.35 38.1738C1332.72 39.2795 1331.94 40.2242 1330.46 41.6763C1329.23 42.8823 1327.94 43.9444 1327.19 44.378C1326.5 44.7699 1325.28 45.3379 1324.49 45.6389C1323.69 45.9399 1322.37 46.3224 1321.55 46.4871C1320.72 46.6537 1319.13 46.7862 1317.98 46.7843C1316.84 46.7824 1315.31 46.6537 1314.56 46.4984C1313.82 46.3432 1312.74 46.0384 1312.15 45.8225C1311.57 45.6048 1310.66 45.211 1310.13 44.946C1309.6 44.6809 1308.78 44.2057 1308.3 43.8876C1307.82 43.5696 1306.79 42.7082 1306.01 41.9717C1305.23 41.2371 1304.27 40.1655 1303.87 39.5938C1303.47 39.022 1302.91 38.083 1302.61 37.5112C1302.32 36.9394 1301.91 36.0004 1301.71 35.4286C1301.51 34.8569 1301.22 33.8118 1301.06 33.1094C1300.91 32.407 1300.78 30.936 1300.78 29.8436C1300.78 28.7512 1300.92 27.1949 1301.09 26.3884C1301.26 25.5819 1301.65 24.2831 1301.96 23.5012C1302.26 22.7212 1302.84 21.5531 1303.24 20.9093C1303.64 20.2638 1304.44 19.1732 1305.02 18.486C1305.61 17.7987 1306.6 16.8275 1307.24 16.3296C1307.88 15.8317 1308.92 15.1179 1309.55 14.7412C1310.19 14.3663 1311.32 13.8343 1312.06 13.5579Z" fill="#F4E9DB"/>
<path d="M1413.13 13.6734C1414.03 13.3326 1415.29 12.9407 1415.93 12.8063C1416.56 12.6699 1418.13 12.5507 1419.4 12.5431C1420.69 12.5336 1422.26 12.6416 1422.96 12.7873C1423.65 12.9312 1424.91 13.308 1425.76 13.626C1426.61 13.946 1427.99 14.6484 1428.84 15.1899C1429.69 15.7294 1430.98 16.7347 1431.7 17.422C1432.43 18.1111 1433.48 19.355 1434.05 20.188C1434.61 21.0211 1435.33 22.299 1435.65 23.0279C1435.97 23.7568 1436.38 24.9079 1436.57 25.5838C1436.84 26.5209 1436.92 27.4903 1436.92 29.6542C1436.91 32.2044 1436.86 32.6683 1436.38 34.198C1436.09 35.1352 1435.49 36.5835 1435.04 37.4165C1434.59 38.2496 1433.83 39.4423 1433.34 40.0671C1432.86 40.6919 1431.91 41.6991 1431.23 42.3068C1430.55 42.9145 1429.39 43.7816 1428.65 44.236C1427.91 44.6885 1426.65 45.3152 1425.85 45.6256C1425.06 45.9361 1423.74 46.3242 1422.91 46.489C1422.09 46.6537 1420.51 46.7881 1419.4 46.7881C1418.28 46.7881 1416.79 46.665 1416.07 46.5136C1415.36 46.3621 1414.25 46.0592 1413.62 45.8415C1412.98 45.6219 1411.9 45.1485 1411.21 44.7888C1410.52 44.4291 1409.35 43.6889 1408.62 43.1417C1407.88 42.5965 1406.8 41.5836 1406.21 40.8925C1405.62 40.2015 1404.81 39.094 1404.41 38.4313C1404.01 37.7687 1403.43 36.5892 1403.13 35.8073C1402.82 35.0273 1402.42 33.6641 1402.23 32.7781C1401.98 31.5494 1401.93 30.6539 1402.02 28.9916C1402.08 27.6493 1402.28 26.271 1402.54 25.3944C1402.76 24.6144 1403.23 23.3781 1403.57 22.6492C1403.92 21.9203 1404.57 20.7711 1405.04 20.0934C1405.5 19.4175 1406.41 18.3213 1407.05 17.6605C1407.69 16.9998 1408.96 15.9718 1409.86 15.3773C1410.76 14.7828 1412.23 14.016 1413.13 13.6734Z" fill="#F4E9DB"/>
<path d="M1139.57 18.2474C1139.1 17.2838 1138.71 16.4527 1138.71 16.4015C1138.71 16.3504 1151.03 16.3069 1166.08 16.3069C1181.13 16.3069 1193.42 16.3712 1193.39 16.4489C1193.35 16.5265 1192.93 17.3993 1192.44 18.3894C1191.96 19.3796 1191.3 20.9548 1190.98 21.8919C1190.66 22.8291 1190.26 24.321 1190.08 25.2051C1189.91 26.0912 1189.72 27.7515 1189.65 28.8969C1189.58 30.101 1189.63 31.8182 1189.77 32.9674C1189.9 34.0598 1190.17 35.6369 1190.39 36.4699C1190.6 37.3029 1191.08 38.7929 1191.46 39.7831C1191.84 40.7733 1192.39 42.072 1193.25 43.7589H1138.71L1139.22 42.6703C1139.49 42.072 1140.07 40.6862 1140.49 39.5938C1140.92 38.5014 1141.49 36.6687 1141.76 35.5233C1142.2 33.7039 1142.26 33.0204 1142.26 30.1276C1142.26 27.6928 1142.17 26.3638 1141.91 25.1105C1141.72 24.1733 1141.31 22.6398 1141 21.7026C1140.68 20.7655 1140.04 19.2111 1139.57 18.2474Z" fill="#F4E9DB"/>
<path d="M1241.12 18.1528C1240.65 17.2421 1240.27 16.4527 1240.27 16.4015C1240.27 16.3504 1252.5 16.3069 1267.45 16.3069C1285.43 16.3069 1294.62 16.3712 1294.62 16.4962C1294.62 16.6003 1294.26 17.3879 1293.82 18.2474C1293.38 19.107 1292.69 20.7901 1292.28 21.9866C1291.88 23.185 1291.4 25.0593 1291.23 26.1517C1290.99 27.6569 1290.94 28.8969 1291.03 31.2635C1291.09 33.0337 1291.26 34.961 1291.44 35.7126C1291.6 36.4415 1292.03 37.8899 1292.38 38.9311C1292.74 39.9724 1293.34 41.4416 1293.73 42.197C1294.11 42.9524 1294.42 43.6131 1294.42 43.6642C1294.42 43.7154 1282.24 43.7589 1240.27 43.7589L1240.74 42.8596C1240.99 42.3655 1241.56 41.0648 1242 39.9724C1242.45 38.88 1243.02 37.1326 1243.27 36.0913C1243.53 35.05 1243.81 33.3025 1243.91 32.2101C1244.02 31.0174 1244.02 29.3135 1243.91 27.9503C1243.82 26.7008 1243.57 24.9969 1243.37 24.1638C1243.17 23.3308 1242.77 22.0112 1242.48 21.2293C1242.19 20.4493 1241.58 19.0634 1241.12 18.1528Z" fill="#F4E9DB"/>
<path d="M1342.72 18.4368C1342.23 17.4731 1341.83 16.6003 1341.83 16.4962C1341.83 16.3712 1350.99 16.3069 1368.91 16.3069C1383.8 16.3069 1395.99 16.3277 1395.99 16.3542C1395.99 16.3807 1395.61 17.1683 1395.13 18.1055C1394.66 19.0426 1393.97 20.7049 1393.6 21.7973C1393.23 22.8897 1392.79 24.5936 1392.62 25.5838C1392.44 26.6686 1392.32 28.5088 1392.32 30.2222C1392.32 31.9356 1392.44 33.7758 1392.62 34.8607C1392.79 35.8508 1393.23 37.5547 1393.6 38.6472C1393.97 39.7396 1394.61 41.3375 1395.79 43.7589H1368.81C1353.97 43.7589 1341.83 43.7381 1341.83 43.7116C1341.82 43.6851 1342.16 42.9391 1342.58 42.055C1343 41.1708 1343.61 39.679 1343.94 38.7418C1344.27 37.8047 1344.73 36.1859 1344.96 35.1446C1345.28 33.6471 1345.37 32.5774 1345.38 30.0329C1345.38 27.6531 1345.29 26.3714 1345.03 25.1105C1344.84 24.1733 1344.44 22.6833 1344.15 21.7973C1343.85 20.9131 1343.21 19.4004 1342.72 18.4368Z" fill="#F4E9DB"/>
<path d="M1444 18.3894C1443.52 17.3993 1443.08 16.5265 1443.04 16.4489C1443 16.3712 1455.15 16.3069 1470.06 16.3069C1484.96 16.3069 1497.16 16.3712 1497.16 16.4489C1497.16 16.5265 1496.74 17.4864 1496.21 18.5788C1495.68 19.6712 1495 21.4186 1494.68 22.4599C1494.37 23.5012 1493.97 25.2487 1493.8 26.3411C1493.64 27.4335 1493.5 29.1374 1493.5 30.1276C1493.5 31.1177 1493.63 32.8216 1493.78 33.914C1493.93 35.0064 1494.3 36.7104 1494.61 37.7005C1494.92 38.6907 1495.35 39.9251 1495.57 40.4457C1495.78 40.9664 1496.23 41.9244 1497.16 43.7589H1443L1443.95 41.8183C1444.47 40.7505 1445.11 39.1962 1445.38 38.3632C1445.64 37.5301 1446.05 35.9531 1446.28 34.8607C1446.6 33.3574 1446.71 32.2025 1446.71 30.1276C1446.71 28.4085 1446.6 26.7273 1446.4 25.6311C1446.23 24.6674 1445.82 23.0487 1445.49 22.0339C1445.16 21.0192 1444.49 19.3796 1444 18.3894Z" fill="#F4E9DB"/>
<path d="M404.294 12.8195C405.088 12.6624 405.999 12.4958 406.317 12.4503C406.635 12.403 407.718 12.4087 408.726 12.4598C409.732 12.5128 411.164 12.7078 411.906 12.8934C412.648 13.0789 413.862 13.4803 414.604 13.7851C415.346 14.088 416.647 14.798 417.494 15.3621C418.342 15.9263 419.578 16.9222 420.241 17.5772C420.902 18.2323 421.852 19.3853 422.349 20.1407C422.846 20.8961 423.488 22.0245 423.777 22.6492C424.064 23.274 424.486 24.4668 424.713 25.2998C424.939 26.1328 425.174 27.7099 425.234 28.8023C425.313 30.2128 425.253 31.2995 425.031 32.5414C424.86 33.5051 424.461 34.9534 424.147 35.76C423.831 36.5665 423.245 37.7706 422.846 38.4351C422.445 39.0996 421.642 40.2015 421.06 40.8831C420.476 41.5646 419.393 42.5775 418.651 43.1341C417.909 43.6889 416.564 44.52 415.664 44.98C414.762 45.4382 413.332 46.0119 412.484 46.2542C411.127 46.6404 410.547 46.6915 407.666 46.6802C404.616 46.6688 404.276 46.631 402.752 46.1387C401.85 45.8471 400.594 45.3511 399.958 45.0387C399.322 44.7264 398.281 44.1054 397.645 43.6586C397.009 43.2099 395.955 42.3049 395.304 41.646C394.651 40.9853 393.716 39.8494 393.226 39.1205C392.737 38.3916 392.066 37.1572 391.737 36.3753C391.407 35.5952 390.968 34.1469 390.76 33.1567C390.457 31.7217 390.399 30.8792 390.475 28.9916C390.546 27.193 390.688 26.2275 391.072 24.9685C391.348 24.0578 391.866 22.7363 392.224 22.0339C392.583 21.3315 393.427 20.0366 394.103 19.1562C394.78 18.2758 395.895 17.0982 396.585 16.5378C397.273 15.9774 398.401 15.1974 399.091 14.8036C399.779 14.4098 400.906 13.8665 401.596 13.5976C402.284 13.3269 403.498 12.9785 404.294 12.8195Z" fill="#F4E9DB"/>
<path d="M706.946 13.1092C707.688 12.8896 708.902 12.6359 709.644 12.545C710.385 12.4541 711.208 12.3689 711.474 12.3557C711.738 12.3443 712.692 12.4163 713.594 12.5166C714.494 12.6169 715.839 12.8801 716.581 13.1035C717.323 13.3269 718.493 13.7813 719.183 14.1145C719.871 14.4458 720.954 15.0535 721.588 15.4644C722.222 15.8752 723.295 16.7234 723.973 17.3482C724.652 17.9729 725.717 19.2509 726.344 20.188C726.97 21.1252 727.731 22.5319 728.038 23.3119C728.342 24.0938 728.741 25.4569 728.924 26.3411C729.177 27.5792 729.231 28.5164 729.15 30.4115C729.078 32.1174 728.918 33.3082 728.629 34.2927C728.4 35.0746 727.783 36.521 727.257 37.5112C726.733 38.5014 725.764 39.9421 725.103 40.7165C724.444 41.4908 723.297 42.5775 722.555 43.1341C721.813 43.6889 720.468 44.52 719.568 44.98C718.666 45.4382 717.236 46.0119 716.388 46.2542C715.032 46.6404 714.452 46.6915 711.571 46.6802C708.518 46.6688 708.181 46.631 706.657 46.1368C705.755 45.8453 704.454 45.3284 703.766 44.9876C703.076 44.6468 701.97 43.9747 701.309 43.4957C700.646 43.0149 699.705 42.2178 699.216 41.7237C698.728 41.2295 697.956 40.3132 697.495 39.6884C697.036 39.0637 696.296 37.7857 695.849 36.8486C695.375 35.8546 694.89 34.4347 694.681 33.4407C694.47 32.4165 694.327 30.9246 694.325 29.7016C694.323 28.5827 694.444 27.0491 694.595 26.2937C694.743 25.5383 695.096 24.3248 695.379 23.5959C695.66 22.867 696.2 21.7594 696.576 21.1346C696.954 20.5099 697.628 19.5292 698.075 18.9574C698.522 18.3857 699.357 17.4996 699.931 16.9922C700.503 16.4848 701.492 15.7219 702.128 15.2997C702.764 14.8775 703.804 14.3 704.44 14.0179C705.076 13.7377 706.204 13.3269 706.946 13.1092Z" fill="#F4E9DB"/>
<path d="M503.058 13.5579C503.8 13.2815 504.927 12.9445 505.563 12.8082C506.199 12.67 507.802 12.5507 509.128 12.5431C510.645 12.5317 511.982 12.6302 512.742 12.8063C513.403 12.9615 514.617 13.3402 515.44 13.6469C516.261 13.9536 517.627 14.6465 518.475 15.1842C519.323 15.7219 520.797 16.9411 521.751 17.8915C522.705 18.8438 523.811 20.1748 524.212 20.8525C524.611 21.5284 525.197 22.742 525.513 23.5485C525.827 24.3551 526.218 25.7617 526.378 26.6724C526.538 27.583 526.667 28.9689 526.665 29.7489C526.663 30.5308 526.571 31.7236 526.461 32.3994C526.351 33.0772 526.023 34.3116 525.734 35.1446C525.447 35.9777 524.823 37.3408 524.349 38.1738C523.718 39.2795 522.94 40.2242 521.462 41.6763C520.234 42.8823 518.945 43.9444 518.186 44.378C517.496 44.7699 516.282 45.3379 515.488 45.6389C514.692 45.9399 513.37 46.3224 512.549 46.4871C511.718 46.6537 510.134 46.7862 508.984 46.7843C507.843 46.7824 506.305 46.6537 505.563 46.4984C504.821 46.3432 503.736 46.0384 503.154 45.8225C502.57 45.6048 501.661 45.211 501.131 44.946C500.601 44.6809 499.776 44.2057 499.3 43.8876C498.822 43.5696 497.793 42.7082 497.013 41.9717C496.232 41.2371 495.269 40.1655 494.872 39.5938C494.475 39.022 493.908 38.083 493.613 37.5112C493.318 36.9394 492.912 36.0004 492.709 35.4286C492.509 34.8569 492.216 33.8118 492.064 33.1094C491.91 32.407 491.784 30.936 491.784 29.8436C491.784 28.7512 491.921 27.1949 492.089 26.3884C492.258 25.5819 492.648 24.2831 492.956 23.5012C493.262 22.7212 493.841 21.5531 494.239 20.9093C494.636 20.2638 495.44 19.1732 496.024 18.486C496.606 17.7987 497.604 16.8275 498.24 16.3296C498.876 15.8317 499.917 15.1179 500.553 14.7412C501.189 14.3663 502.316 13.8343 503.058 13.5579Z" fill="#F4E9DB"/>
<path d="M604.135 13.6734C605.035 13.3326 606.293 12.9407 606.929 12.8063C607.565 12.6699 609.126 12.5507 610.398 12.5431C611.691 12.5336 613.261 12.6416 613.963 12.7873C614.651 12.9312 615.909 13.308 616.757 13.626C617.605 13.946 618.993 14.6484 619.84 15.1899C620.688 15.7294 621.976 16.7347 622.7 17.422C623.427 18.1111 624.483 19.355 625.049 20.188C625.614 21.0211 626.335 22.299 626.651 23.0279C626.967 23.7568 627.381 24.9079 627.572 25.5838C627.836 26.5209 627.917 27.4903 627.915 29.6542C627.909 32.2044 627.855 32.6683 627.379 34.198C627.088 35.1352 626.485 36.5835 626.036 37.4165C625.589 38.2496 624.828 39.4423 624.344 40.0671C623.86 40.6919 622.908 41.6991 622.23 42.3068C621.552 42.9145 620.39 43.7816 619.648 44.236C618.906 44.6885 617.647 45.3152 616.853 45.6256C616.058 45.9361 614.736 46.3242 613.915 46.489C613.092 46.6537 611.51 46.7881 610.398 46.7881C609.284 46.7881 607.788 46.665 607.073 46.5136C606.357 46.3621 605.252 46.0592 604.616 45.8415C603.98 45.6219 602.895 45.1485 602.207 44.7888C601.518 44.4291 600.352 43.6889 599.617 43.1417C598.881 42.5965 597.798 41.5836 597.209 40.8925C596.619 40.2015 595.809 39.094 595.411 38.4313C595.01 37.7687 594.432 36.5892 594.125 35.8073C593.819 35.0273 593.418 33.6641 593.235 32.7781C592.982 31.5494 592.93 30.6539 593.015 28.9916C593.085 27.6493 593.285 26.271 593.539 25.3944C593.765 24.6144 594.231 23.3781 594.572 22.6492C594.915 21.9203 595.574 20.7711 596.039 20.0934C596.503 19.4175 597.409 18.3213 598.051 17.6605C598.694 16.9998 599.957 15.9718 600.858 15.3773C601.758 14.7828 603.233 14.016 604.135 13.6734Z" fill="#F4E9DB"/>
<path d="M330.569 18.2474C330.098 17.2838 329.715 16.4527 329.715 16.4015C329.715 16.3504 342.029 16.3069 357.08 16.3069C372.13 16.3069 384.418 16.3712 384.387 16.4489C384.354 16.5265 383.93 17.3993 383.444 18.3894C382.957 19.3796 382.298 20.9548 381.98 21.8919C381.66 22.8291 381.257 24.321 381.084 25.2051C380.91 26.0912 380.716 27.7515 380.652 28.8969C380.585 30.101 380.635 31.8182 380.768 32.9674C380.897 34.0598 381.174 35.6369 381.388 36.4699C381.602 37.3029 382.084 38.7929 382.46 39.7831C382.835 40.7733 383.392 42.072 384.252 43.7589H329.715L330.218 42.6703C330.493 42.072 331.068 40.6862 331.492 39.5938C331.916 38.5014 332.488 36.6687 332.762 35.5233C333.195 33.7039 333.259 33.0204 333.259 30.1276C333.261 27.6928 333.17 26.3638 332.914 25.1105C332.725 24.1733 332.311 22.6398 331.997 21.7026C331.68 20.7655 331.039 19.2111 330.569 18.2474Z" fill="#F4E9DB"/>
<path d="M432.115 18.1528C431.651 17.2421 431.273 16.4527 431.273 16.4015C431.273 16.3504 443.501 16.3069 458.445 16.3069C476.431 16.3069 485.618 16.3712 485.618 16.4962C485.618 16.6003 485.259 17.3879 484.822 18.2474C484.384 19.107 483.692 20.7901 483.284 21.9866C482.877 23.185 482.401 25.0593 482.23 26.1517C481.995 27.6569 481.945 28.8969 482.025 31.2635C482.085 33.0337 482.263 34.961 482.436 35.7126C482.604 36.4415 483.031 37.8899 483.384 38.9311C483.739 39.9724 484.342 41.4416 484.725 42.197C485.111 42.9524 485.425 43.6131 485.425 43.6642C485.425 43.7154 473.24 43.7589 431.273 43.7589L431.736 42.8596C431.99 42.3655 432.561 41.0648 433.004 39.9724C433.447 38.88 434.019 37.1326 434.272 36.0913C434.526 35.05 434.813 33.3025 434.912 32.2101C435.018 31.0174 435.018 29.3135 434.914 27.9503C434.817 26.7008 434.572 24.9969 434.368 24.1638C434.166 23.3308 433.765 22.0112 433.478 21.2293C433.193 20.4493 432.58 19.0634 432.115 18.1528Z" fill="#F4E9DB"/>
<path d="M533.722 18.4368C533.233 17.4731 532.832 16.6003 532.832 16.4962C532.832 16.3712 541.985 16.3069 559.908 16.3069C574.798 16.3069 586.985 16.3277 586.987 16.3542C586.991 16.3807 586.606 17.1683 586.133 18.1055C585.661 19.0426 584.973 20.7049 584.603 21.7973C584.233 22.8897 583.794 24.5936 583.624 25.5838C583.439 26.6686 583.318 28.5088 583.318 30.2222C583.318 31.9356 583.439 33.7758 583.624 34.8607C583.794 35.8508 584.233 37.5547 584.601 38.6472C584.969 39.7396 585.613 41.3375 586.791 43.7589H559.811C544.972 43.7589 532.83 43.7381 532.826 43.7116C532.824 43.6851 533.163 42.9391 533.579 42.055C533.996 41.1708 534.608 39.679 534.942 38.7418C535.273 37.8047 535.732 36.1859 535.957 35.1446C536.281 33.6471 536.37 32.5774 536.376 30.0329C536.381 27.6531 536.293 26.3714 536.035 25.1105C535.842 24.1733 535.443 22.6833 535.148 21.7973C534.853 20.9131 534.211 19.4004 533.722 18.4368Z" fill="#F4E9DB"/>
<path d="M635.003 18.3894C634.517 17.3993 634.084 16.5265 634.039 16.4489C633.995 16.3712 646.153 16.3069 661.057 16.3069C675.962 16.3069 688.158 16.3712 688.16 16.4489C688.164 16.5265 687.736 17.4864 687.21 18.5788C686.684 19.6712 685.996 21.4186 685.682 22.4599C685.366 23.5012 684.971 25.2487 684.803 26.3411C684.635 27.4335 684.499 29.1374 684.501 30.1276C684.501 31.1177 684.626 32.8216 684.776 33.914C684.926 35.0064 685.304 36.7104 685.614 37.7005C685.925 38.6907 686.353 39.9251 686.566 40.4457C686.78 40.9664 687.226 41.9244 688.156 43.7589H634.005L634.947 41.8183C635.465 40.7505 636.107 39.1962 636.375 38.3632C636.643 37.5301 637.053 35.9531 637.285 34.8607C637.603 33.3574 637.707 32.2025 637.711 30.1276C637.714 28.4085 637.599 26.7273 637.402 25.6311C637.229 24.6674 636.816 23.0487 636.487 22.0339C636.155 21.0192 635.489 19.3796 635.003 18.3894Z" fill="#F4E9DB"/>
<path d="M0.578957 12.8185C1.37292 12.6614 2.28445 12.4948 2.60242 12.4494C2.92039 12.402 4.00342 12.4077 5.01129 12.4588C6.01724 12.5118 7.44908 12.7068 8.19102 12.8924C8.93295 13.0779 10.147 13.4793 10.889 13.7841C11.6309 14.087 12.9317 14.797 13.7796 15.3612C14.6275 15.9254 15.8628 16.9212 16.5257 17.5763C17.1867 18.2313 18.1368 19.3843 18.634 20.1397C19.1312 20.8951 19.7729 22.0235 20.062 22.6483C20.3491 23.273 20.7711 24.4658 20.9986 25.2988C21.224 26.1318 21.4591 27.7089 21.5189 28.8013C21.5979 30.2118 21.5381 31.2985 21.3165 32.5405C21.145 33.5041 20.7461 34.9525 20.432 35.759C20.1159 36.5655 19.5301 37.7696 19.1312 38.4341C18.7303 39.0987 17.9268 40.2005 17.3448 40.8821C16.7608 41.5637 15.6778 42.5765 14.9359 43.1332C14.1939 43.6879 12.8488 44.519 11.9489 44.9791C11.047 45.4372 9.61707 46.0109 8.76915 46.2532C7.41247 46.6395 6.83241 46.6906 3.95139 46.6792C0.90078 46.6678 0.561607 46.63 -0.96273 46.1377C-1.86462 45.8462 -3.12109 45.3501 -3.75703 45.0378C-4.39298 44.7254 -5.43361 44.1044 -6.06956 43.6576C-6.70551 43.2089 -7.75963 42.3039 -8.41099 41.6451C-9.06428 40.9843 -9.99892 39.8484 -10.4884 39.1195C-10.9779 38.3906 -11.6485 37.1562 -11.9781 36.3743C-12.3076 35.5943 -12.747 34.1459 -12.9551 33.1558C-13.2577 31.7207 -13.3155 30.8782 -13.2403 28.9906C-13.169 27.1921 -13.0264 26.2265 -12.6429 24.9675C-12.3673 24.0568 -11.8489 22.7353 -11.4905 22.033C-11.1321 21.3306 -10.288 20.0356 -9.61158 19.1552C-8.93517 18.2749 -7.81937 17.0973 -7.12946 16.5369C-6.44149 15.9765 -5.31413 15.1965 -4.62423 14.8027C-3.93626 14.4089 -2.8089 13.8655 -2.119 13.5967C-1.43102 13.3259 -0.216934 12.9776 0.578957 12.8185Z" fill="#F4E9DB"/>
<path d="M303.231 13.1082C303.973 12.8886 305.187 12.6349 305.929 12.544C306.671 12.4531 307.494 12.3679 307.759 12.3547C308.023 12.3433 308.977 12.4153 309.879 12.5156C310.779 12.616 312.124 12.8791 312.866 13.1025C313.608 13.3259 314.778 13.7803 315.468 14.1135C316.156 14.4448 317.239 15.0526 317.873 15.4634C318.507 15.8742 319.58 16.7224 320.259 17.3472C320.937 17.9719 322.003 19.2499 322.629 20.187C323.255 21.1242 324.017 22.5309 324.323 23.3109C324.627 24.0928 325.026 25.4559 325.209 26.3401C325.462 27.5783 325.516 28.5154 325.435 30.4106C325.364 32.1164 325.204 33.3072 324.915 34.2917C324.685 35.0736 324.069 36.5201 323.542 37.5102C323.018 38.5004 322.049 39.9412 321.388 40.7155C320.729 41.4898 319.582 42.5765 318.84 43.1332C318.098 43.6879 316.753 44.519 315.853 44.9791C314.951 45.4372 313.521 46.0109 312.674 46.2532C311.317 46.6395 310.737 46.6906 307.856 46.6792C304.803 46.6678 304.466 46.63 302.942 46.1358C302.04 45.8443 300.739 45.3274 300.051 44.9866C299.361 44.6459 298.255 43.9738 297.594 43.4948C296.931 43.0139 295.991 42.2168 295.501 41.7227C295.014 41.2286 294.241 40.3122 293.78 39.6875C293.322 39.0627 292.582 37.7847 292.134 36.8476C291.66 35.8536 291.175 34.4337 290.967 33.4398C290.755 32.4155 290.612 30.9236 290.61 29.7006C290.608 28.5817 290.73 27.0482 290.88 26.2928C291.028 25.5374 291.381 24.3238 291.664 23.5949C291.946 22.866 292.485 21.7584 292.861 21.1337C293.239 20.5089 293.913 19.5282 294.36 18.9564C294.807 18.3847 295.642 17.4986 296.216 16.9912C296.788 16.4839 297.777 15.7209 298.413 15.2987C299.049 14.8765 300.09 14.2991 300.726 14.017C301.361 13.7368 302.489 13.3259 303.231 13.1082Z" fill="#F4E9DB"/>
<path d="M99.3431 13.5569C100.085 13.2805 101.212 12.9435 101.848 12.8072C102.484 12.669 104.088 12.5497 105.413 12.5421C106.93 12.5308 108.268 12.6292 109.027 12.8053C109.688 12.9605 110.902 13.3392 111.725 13.6459C112.546 13.9526 113.912 14.6455 114.76 15.1832C115.608 15.7209 117.082 16.9401 118.036 17.8905C118.99 18.8428 120.096 20.1738 120.497 20.8516C120.896 21.5275 121.482 22.741 121.798 23.5476C122.112 24.3541 122.503 25.7608 122.663 26.6714C122.823 27.5821 122.952 28.9679 122.95 29.7479C122.948 30.5298 122.856 31.7226 122.746 32.3985C122.636 33.0763 122.308 34.3106 122.019 35.1437C121.732 35.9767 121.108 37.3398 120.634 38.1729C120.004 39.2785 119.225 40.2232 117.747 41.6754C116.519 42.8814 115.23 43.9435 114.471 44.377C113.781 44.7689 112.567 45.3369 111.773 45.6379C110.977 45.9389 109.655 46.3214 108.834 46.4861C108.003 46.6527 106.419 46.7852 105.269 46.7833C104.128 46.7814 102.59 46.6527 101.848 46.4975C101.106 46.3422 100.021 46.0374 99.4394 45.8216C98.8555 45.6038 97.9459 45.21 97.416 44.945C96.886 44.6799 96.0612 44.2047 95.5852 43.8867C95.1073 43.5686 94.0782 42.7072 93.2977 41.9707C92.5173 41.2361 91.5537 40.1646 91.1567 39.5928C90.7598 39.021 90.1932 38.082 89.8983 37.5102C89.6035 36.9385 89.1969 35.9994 88.9945 35.4277C88.7941 34.8559 88.5012 33.8108 88.3489 33.1084C88.1948 32.406 88.0695 30.935 88.0695 29.8426C88.0695 28.7502 88.2063 27.1939 88.374 26.3874C88.5436 25.5809 88.9329 24.2821 89.2412 23.5002C89.5476 22.7202 90.1257 21.5521 90.5246 20.9084C90.9216 20.2628 91.7252 19.1723 92.3091 18.485C92.8911 17.7978 93.8894 16.8265 94.5253 16.3286C95.1613 15.8307 96.2019 15.1169 96.8378 14.7402C97.4738 14.3653 98.6012 13.8333 99.3431 13.5569Z" fill="#F4E9DB"/>
<path d="M200.42 13.6724C201.32 13.3316 202.578 12.9397 203.214 12.8053C203.85 12.669 205.411 12.5497 206.683 12.5421C207.976 12.5327 209.546 12.6406 210.248 12.7864C210.936 12.9302 212.194 13.307 213.042 13.6251C213.89 13.945 215.278 14.6474 216.126 15.1889C216.974 15.7285 218.261 16.7338 218.985 17.421C219.712 18.1102 220.768 19.354 221.335 20.187C221.899 21.0201 222.62 22.298 222.936 23.0269C223.252 23.7558 223.666 24.9069 223.857 25.5828C224.121 26.5199 224.202 27.4893 224.2 29.6533C224.194 32.2035 224.14 32.6673 223.664 34.1971C223.373 35.1342 222.77 36.5825 222.321 37.4156C221.874 38.2486 221.113 39.4413 220.629 40.0661C220.146 40.6909 219.194 41.6981 218.515 42.3058C217.837 42.9135 216.675 43.7806 215.933 44.235C215.191 44.6875 213.933 45.3142 213.139 45.6247C212.343 45.9352 211.021 46.3233 210.2 46.488C209.377 46.6527 207.795 46.7871 206.683 46.7871C205.569 46.7871 204.074 46.6641 203.359 46.5126C202.642 46.3611 201.537 46.0582 200.901 45.8405C200.266 45.6209 199.181 45.1476 198.493 44.7878C197.803 44.4281 196.637 43.6879 195.903 43.1407C195.166 42.5955 194.083 41.5826 193.494 40.8916C192.904 40.2005 192.095 39.093 191.696 38.4303C191.295 37.7677 190.717 36.5882 190.41 35.8063C190.104 35.0263 189.703 33.6632 189.52 32.7771C189.268 31.5484 189.216 30.6529 189.3 28.9906C189.37 27.6483 189.57 26.27 189.824 25.3935C190.05 24.6134 190.516 23.3772 190.857 22.6483C191.2 21.9194 191.859 20.7702 192.324 20.0924C192.788 19.4165 193.694 18.3203 194.336 17.6596C194.979 16.9988 196.242 15.9708 197.144 15.3763C198.044 14.7818 199.518 14.0151 200.42 13.6724Z" fill="#F4E9DB"/>
<path d="M-73.1463 18.2465C-73.6165 17.2828 -74 16.4517 -74 16.4006C-74 16.3494 -61.6858 16.3059 -46.6351 16.3059C-31.5844 16.3059 -19.2972 16.3703 -19.328 16.4479C-19.3608 16.5255 -19.7848 17.3983 -20.2704 18.3885C-20.7579 19.3786 -21.417 20.9538 -21.735 21.891C-22.0549 22.8281 -22.4577 24.32 -22.6311 25.2041C-22.8045 26.0902 -22.9992 27.7506 -23.0628 28.896C-23.1302 30.1001 -23.0801 31.8172 -22.9471 32.9664C-22.818 34.0588 -22.5405 35.6359 -22.3266 36.4689C-22.1127 37.302 -21.6309 38.792 -21.2551 39.7821C-20.8794 40.7723 -20.3224 42.071 -19.4629 43.7579H-74L-73.497 42.6693C-73.2214 42.0711 -72.6472 40.6852 -72.2232 39.5928C-71.7992 38.5004 -71.2269 36.6677 -70.9532 35.5223C-70.5196 33.7029 -70.4561 33.0195 -70.4561 30.1266C-70.4541 27.6919 -70.5447 26.3628 -70.801 25.1095C-70.9899 24.1723 -71.4042 22.6388 -71.7183 21.7016C-72.0344 20.7645 -72.6761 19.2101 -73.1463 18.2465Z" fill="#F4E9DB"/>
<path d="M28.4006 18.1518C27.9361 17.2412 27.5584 16.4517 27.5584 16.4006C27.5584 16.3494 39.7859 16.3059 54.7306 16.3059C72.7163 16.3059 81.9028 16.3703 81.9028 16.4952C81.9028 16.5993 81.5443 17.3869 81.1069 18.2465C80.6694 19.106 79.9776 20.7891 79.569 21.9856C79.1624 23.1841 78.6864 25.0584 78.5149 26.1508C78.2798 27.6559 78.2297 28.896 78.3107 31.2625C78.3704 33.0327 78.5477 34.96 78.7211 35.7116C78.8888 36.4405 79.3166 37.8889 79.6693 38.9302C80.0238 39.9714 80.627 41.4406 81.0105 42.196C81.396 42.9514 81.7101 43.6121 81.7101 43.6633C81.7101 43.7144 69.525 43.7579 27.5584 43.7579L28.0209 42.8586C28.2753 42.3645 28.8457 41.0638 29.289 39.9714C29.7322 38.879 30.3045 37.1316 30.557 36.0903C30.8114 35.049 31.0985 33.3015 31.1968 32.2091C31.3028 31.0164 31.3028 29.3125 31.1987 27.9493C31.1024 26.6998 30.8576 24.9959 30.6534 24.1629C30.451 23.3298 30.0502 22.0102 29.763 21.2283C29.4778 20.4483 28.865 19.0625 28.4006 18.1518Z" fill="#F4E9DB"/>
<path d="M130.007 18.4358C129.518 17.4721 129.117 16.5993 129.117 16.4952C129.117 16.3703 138.271 16.3059 156.193 16.3059C171.083 16.3059 183.27 16.3267 183.272 16.3532C183.276 16.3797 182.891 17.1673 182.419 18.1045C181.946 19.0416 181.259 20.7039 180.889 21.7963C180.519 22.8887 180.079 24.5926 179.91 25.5828C179.725 26.6676 179.603 28.5079 179.603 30.2212C179.603 31.9346 179.725 33.7749 179.91 34.8597C180.079 35.8498 180.519 37.5538 180.887 38.6462C181.255 39.7386 181.898 41.3365 183.076 43.7579H156.096C141.258 43.7579 129.115 43.7371 129.111 43.7106C129.109 43.6841 129.448 42.9382 129.865 42.054C130.281 41.1699 130.894 39.678 131.227 38.7408C131.558 37.8037 132.017 36.185 132.243 35.1437C132.566 33.6461 132.655 32.5764 132.661 30.0319C132.667 27.6521 132.578 26.3704 132.32 25.1095C132.127 24.1723 131.728 22.6823 131.433 21.7963C131.138 20.9122 130.497 19.3995 130.007 18.4358Z" fill="#F4E9DB"/>
<path d="M231.288 18.3885C230.802 17.3983 230.369 16.5255 230.325 16.4479C230.28 16.3703 242.438 16.3059 257.343 16.3059C272.247 16.3059 284.443 16.3703 284.445 16.4479C284.449 16.5255 284.021 17.4854 283.495 18.5778C282.969 19.6702 282.281 21.4177 281.967 22.4589C281.651 23.5002 281.256 25.2477 281.088 26.3401C280.921 27.4325 280.784 29.1364 280.786 30.1266C280.786 31.1167 280.911 32.8207 281.061 33.9131C281.212 35.0055 281.589 36.7094 281.9 37.6996C282.21 38.6897 282.638 39.9241 282.852 40.4448C283.066 40.9654 283.511 41.9234 284.441 43.7579H230.29L231.232 41.8174C231.751 40.7496 232.392 39.1952 232.66 38.3622C232.928 37.5292 233.339 35.9521 233.57 34.8597C233.888 33.3564 233.992 32.2016 233.996 30.1266C234 28.4075 233.884 26.7263 233.687 25.6301C233.514 24.6665 233.101 23.0477 232.772 22.033C232.44 21.0182 231.774 19.3786 231.288 18.3885Z" fill="#F4E9DB"/>
<defs>
<radialGradient id="paint0_radial_2073_466" cx="0" cy="0" r="1" gradientTransform="matrix(-833.242 66.9963 -1072.46 -177.307 828.966 59.0984)" gradientUnits="userSpaceOnUse">
<stop stop-color="#07423F"/>
<stop offset="1" stop-color="#022120"/>
</radialGradient>
</defs>
</svg>
