<svg width="818" height="419" viewBox="0 0 818 419" fill="none" xmlns="http://www.w3.org/2000/svg">
<path opacity="0.97" fill-rule="evenodd" clip-rule="evenodd" d="M127.11 56.8896L200.5 57.4996L206 60.1196C209.03 61.5696 213.41 64.1497 215.75 65.8697C218.09 67.5897 221.54 71.3596 223.43 74.2496C225.32 77.1396 227.63 82.1996 228.57 85.4996C229.8 89.8496 230.1 93.4296 229.68 98.4996C229.23 103.81 228.25 107.07 222.18 118.5L227.84 123.58C230.95 126.37 235.19 131.1 237.27 134.08C239.34 137.06 242.19 142.65 243.6 146.5C245.34 151.24 246.34 156.4 246.7 162.5C246.99 167.45 246.73 174.2 246.12 177.5C245.51 180.8 243.34 186.87 241.3 191C239.04 195.56 235.17 201.05 231.44 205C227.49 209.18 222.84 212.8 218.4 215.15C214.61 217.16 209.03 219.6 206 220.58C201.2 222.12 194.67 222.42 154.5 222.96C112.21 223.52 108.05 223.72 102.98 225.53C99.9401 226.61 94.8301 229.07 91.6201 231C88.4001 232.93 83.4601 236.81 80.6401 239.64C77.8101 242.46 73.9301 247.4 72.0001 250.62C70.0801 253.83 67.6401 258.94 66.5901 261.98C65.5101 265.1 64.4801 271.41 64.2301 276.5C63.9101 282.82 64.2501 287.43 65.4001 292C66.2901 295.57 68.4801 301.43 70.2601 305C72.3401 309.2 75.9701 313.98 80.5101 318.5C85.4701 323.45 89.7301 326.57 95.0201 329.15C99.1301 331.15 104.75 333.26 107.5 333.83C110.25 334.4 115.31 335.12 125 336V272L150.5 272.5L151 359L126.75 358.68C104.75 358.39 101.85 358.14 95.5001 356.08C91.6501 354.83 85.1301 352.05 81.0001 349.92C76.8801 347.78 70.6001 343.66 67.0601 340.77C63.5101 337.87 58.4501 332.8 55.8001 329.5C53.1501 326.2 49.1901 319.9 46.9801 315.5C44.7801 311.1 42.0701 303.9 40.9801 299.5C39.8801 295.1 38.8101 287.9 38.6001 283.5C38.3801 279.1 38.7801 271.68 39.4701 267C40.1601 262.32 41.9201 255.12 43.3701 251C44.8201 246.87 47.4701 241.03 49.2601 238C51.0401 234.98 56.7801 228.23 62.0001 223C69.5901 215.4 73.3101 212.55 80.5001 208.79C85.4501 206.2 93.1001 203.09 97.5001 201.88C105 199.81 108.32 199.64 150.5 199.04C184.93 198.55 196.32 198.08 199 197.03C200.93 196.28 204.07 194.69 206 193.49C207.93 192.3 211.3 189.3 213.5 186.84C216.04 183.99 218.32 179.92 219.75 175.68C220.99 172.01 222 167.65 222 166C222 164.35 221.01 159.96 219.8 156.25C217.99 150.7 216.52 148.42 211.55 143.42C207.37 139.22 203.95 136.79 200.5 135.56C197.63 134.54 190.91 133.51 173.99 132.5L174 109H183.5C190.47 109 193.98 108.53 196.69 107.25C198.72 106.29 201.19 104.15 202.19 102.5C203.23 100.76 203.98 97.6096 203.97 94.9996C203.95 92.4096 203.15 89.2296 202.09 87.4996C201.07 85.8496 198.38 83.7096 196.12 82.7496C192.66 81.2796 188.81 80.9996 152 80.9996V173H127L127.11 56.8896ZM330.34 60.1796C330.97 60.3596 341.06 65.3396 352.75 71.2496C364.43 77.1696 374 82.2296 374 82.4996C374 82.7796 363.87 82.9996 329 82.9996L329.09 71.4296C329.15 63.1596 329.51 59.9496 330.34 60.1796ZM689.25 96.0996C689.66 96.0496 690 101.52 690.03 120.5L685.26 121.26C682.64 121.67 679.03 122.91 677.25 124.01C675.46 125.1 673.21 127.22 672.25 128.72C671.28 130.21 667.67 142.7 664.22 156.47C660.77 170.24 656.92 183.75 655.67 186.5C654.42 189.25 651.4 193.67 648.95 196.32C646.5 198.97 642.47 202.09 640 203.24C637.52 204.4 631.45 205.94 626.5 206.67C621.55 207.39 616.26 207.99 612 208L612.5 184.64L619.02 183.07C622.61 182.21 626.78 180.72 628.27 179.75C629.77 178.79 631.64 176.54 632.42 174.75C633.2 172.97 636.35 161.38 639.43 149C642.51 136.63 646.24 123.58 647.73 120C649.48 115.77 652.09 111.85 655.21 108.75C657.84 106.14 662.36 102.89 665.25 101.52C668.13 100.15 674.55 98.3997 679.5 97.6197C684.45 96.8397 688.83 96.1496 689.25 96.0996ZM264 96.9996H290V208H264V96.9996ZM313.98 96.9996H395V121H340V184H397L396.5 207.5H314.5L313.98 96.9996ZM416.14 96.8596L443.32 97.1897C469.85 97.4997 470.61 97.5697 475.49 99.9797C478.24 101.33 482.54 104.48 485.04 106.97C487.53 109.46 490.68 113.75 492.04 116.5C494.12 120.75 494.49 122.94 494.49 131C494.49 139.06 494.12 141.26 492.04 145.5C490.7 148.25 487.32 152.79 484.54 155.58C481.15 159 477.86 161.21 474.49 162.33C471.74 163.25 466.83 164.34 457.66 165.5L476.83 185.75C487.37 196.89 495.99 206.45 495.99 207C495.99 207.63 489.75 208 462.49 207.97L417.97 163.5L417.99 141H440.49C457.63 141 463.65 140.67 465.74 139.62C467.26 138.86 469.06 137.06 469.74 135.62C470.43 134.18 470.99 131.88 470.99 130.5C470.99 128.98 469.63 126.64 463.99 121H415.99L416.14 96.8596ZM512 97.0097H594V121.01H538V184.01H596V207.01H512V97.0097ZM561.5 134C562.6 134.01 565.07 134.45 567 134.98C568.92 135.51 572.07 137.56 574 139.53C577.12 142.74 577.53 143.79 577.8 149.32C578.04 154.2 577.67 156.19 576.05 158.76C574.92 160.54 572.54 162.9 570.75 164C568.67 165.28 565.7 166.01 562.5 166.03C558.92 166.05 556.53 165.41 554.09 163.78C552.22 162.53 549.83 160.38 548.78 159.01C547.73 157.63 546.65 154.48 546.37 152.01C545.99 148.56 546.41 146.45 548.18 143.01C549.88 139.72 551.71 137.9 555 136.25C557.47 135.01 560.4 134 561.5 134ZM363.43 136.01C366.74 136.01 369.63 136.71 371.75 138.01C373.54 139.11 375.9 141.81 377 144.01C378.1 146.21 378.99 149.24 378.98 150.76C378.97 152.27 378.07 155.42 376.98 157.76C375.87 160.13 373.56 162.89 371.75 164C369.67 165.28 366.7 166.01 363.5 166.03C359.93 166.05 357.5 165.41 355 163.76C353.07 162.5 350.71 159.9 349.75 157.99C348.79 156.07 348 152.93 348 151.01C348 149.08 348.79 145.94 349.75 144.03C350.71 142.11 353.04 139.52 354.93 138.28C357.37 136.66 359.83 136.01 363.43 136.01ZM326 247.71C329.57 247.99 335.42 249.14 339 250.26C342.57 251.38 347.75 253.61 350.5 255.23C353.25 256.85 357.92 260.5 360.87 263.34C363.83 266.18 368.01 271.21 370.17 274.51C372.33 277.81 375.01 283.43 376.13 287.01C377.58 291.6 378.2 296.44 378.26 303.51C378.32 310.33 377.79 315.41 376.6 319.51C375.63 322.81 373.22 328.43 371.24 332.01C369.26 335.58 365.13 341 362.07 344.06C359.01 347.11 354.02 351.01 351 352.72C347.97 354.44 342.57 356.85 339 358.09C333.78 359.9 330.24 360.35 321 360.39C312.61 360.43 307.88 359.95 303.5 358.62C300.2 357.61 294.8 355.43 291.5 353.76C287.89 351.93 282.68 347.9 278.42 343.62C273.73 338.91 270.27 334.31 268.19 330.01C266.46 326.43 264.36 320.81 263.52 317.51C262.68 314.21 262 308.13 262.01 304.01C262.02 299.88 262.72 293.58 263.57 290.01C264.42 286.43 266.54 280.81 268.28 277.51C270.02 274.21 274.6 268.31 278.47 264.4C282.76 260.06 287.84 256.1 291.5 254.25C294.8 252.59 299.52 250.66 302 249.97C304.47 249.27 309.42 248.37 313 247.95C316.57 247.54 322.42 247.43 326 247.71ZM304 275.67C302.07 276.83 298.34 280.19 295.71 283.14C293.07 286.09 290.25 290.53 289.44 293.01C288.64 295.48 287.98 300.43 287.98 304.01C287.98 307.59 288.75 312.75 289.71 315.51C290.78 318.57 293.39 322.57 296.47 325.85C299.3 328.85 303.91 332.35 307 333.85C311.62 336.08 313.78 336.49 320.5 336.42C326.9 336.35 329.6 335.82 334 333.75C337.1 332.29 341.44 329.05 343.95 326.33C346.4 323.68 349.32 319.48 350.45 317.01C352.04 313.5 352.49 310.51 352.46 303.51C352.43 296.22 352 293.7 350.21 290.26C348.99 287.92 346.09 283.95 343.75 281.43C341.41 278.91 337.25 275.79 334.5 274.5C331.68 273.17 326.67 271.9 323 271.59C319.06 271.25 314.73 271.52 312 272.29C309.52 272.99 305.92 274.51 304 275.67ZM386 248.01L410.75 248.02C428.85 248.04 437.38 248.44 442.5 249.53C446.99 250.49 451.38 252.28 454.75 254.52C457.64 256.44 461.1 259.47 462.44 261.26C463.78 263.04 465.86 266.76 467.07 269.51C468.28 272.26 469.49 276.98 469.76 280.01C470.08 283.47 469.67 287.54 468.67 291.01C467.79 294.03 465.71 298.64 464.04 301.26C462.37 303.87 458.86 307.57 456.25 309.47C453.64 311.38 449.47 313.64 447 314.49C444.52 315.35 439.35 316.33 428.5 317.33L471.5 358.98L435.5 358.96L391.96 315.51L392.5 292.51L415.67 292.01C438.72 291.51 438.86 291.49 441.45 289.01C443.46 287.07 444.04 285.55 444.02 282.26C444 278.77 443.46 277.55 438 273.01H386V248.01ZM535.26 248.11C536.87 248.02 537.01 249.08 536.5 272.35L531 273.49C527.97 274.11 523.7 275.55 521.5 276.7C519.3 277.84 515.59 280.85 513.25 283.39C510.91 285.93 508.17 289.92 507.16 292.26C506.14 294.59 505.04 298.31 504.7 300.51C504.36 302.71 504.57 306.76 505.17 309.51C505.76 312.26 507.09 316.19 508.12 318.26C509.15 320.32 511.91 323.82 514.25 326.03C516.59 328.24 520.41 330.94 522.75 332.03C525.09 333.12 529.02 334.34 535.98 335.51L536.5 301.51L562 301.01V359.01L553.75 359.07C549.21 359.1 541 359.06 535.5 358.98C530 358.89 523.02 358.16 520 357.35C516.97 356.54 511.36 354.22 507.52 352.19C503.68 350.16 498.02 346.03 494.94 343.01C491.86 339.98 488.16 335.48 486.71 333.01C485.27 330.53 483.13 325.81 481.97 322.51C480.74 319 479.64 312.77 479.33 307.51C478.94 301 479.24 296.57 480.44 291.51C481.36 287.66 483.43 281.81 485.05 278.51C486.68 275.21 489.95 270.26 492.33 267.51C494.71 264.76 499.09 260.86 502.08 258.85C505.06 256.84 509.86 254.26 512.75 253.1C515.64 251.95 521.49 250.38 525.75 249.61C530.01 248.85 534.29 248.17 535.26 248.11ZM754.5 248.34C756.38 248.5 756.5 249.23 756.5 272.48L751.5 273.24C748.75 273.66 745.18 274.79 743.57 275.75C741.95 276.72 739.72 279.08 738.6 281.01C737.49 282.93 734.01 294.86 730.88 307.51C727.75 320.16 724.27 332.98 723.16 336.01C721.99 339.16 719.07 343.81 716.31 346.89C713.66 349.85 709.47 353.29 707 354.54C704.52 355.79 699.8 357.28 696.5 357.85C693.2 358.42 687.8 359.03 678.5 359.51L678 336.01L681.75 335.41C683.81 335.08 687.07 334.42 689 333.94C690.92 333.45 693.51 332.37 694.75 331.53C695.99 330.69 697.67 328.66 698.5 327.01C699.32 325.36 702.74 313.09 706.08 299.76C709.43 286.42 713.21 273.26 714.49 270.51C715.77 267.76 718.99 263.29 721.66 260.59C724.32 257.88 728.97 254.55 732 253.18C735.02 251.81 740.87 250.12 745 249.43C749.12 248.74 753.4 248.25 754.5 248.34ZM171 249.01L251.5 248.99L252.21 258.75C252.59 264.12 252.71 269.52 252 273.01H197V336.01H254V359.01H171V249.01ZM579 249.01H660L659.5 272.51L605 273.01V336.01H662V359.01H579V249.01ZM220.5 286C223.26 285.98 225.97 286.91 229.25 288.99C232.77 291.22 234.42 293.11 235.61 296.26C236.64 298.96 236.99 301.78 236.58 304.01C236.23 305.93 234.91 309.08 233.65 311.01C232.39 312.93 229.7 315.29 227.68 316.26C225.66 317.22 222.42 318.01 220.5 318.01C218.57 318.01 215.2 317.11 213 316.01C210.68 314.85 208.07 312.43 206.79 310.26C205.38 307.87 204.58 304.87 204.59 302.01C204.6 299.38 205.41 296.12 206.55 294.17C207.62 292.34 210.3 289.76 212.5 288.43C214.91 286.98 218.08 286.02 220.5 286ZM629.66 286.24C633.04 286.42 635.8 287.24 637.66 288.63C639.22 289.79 641.4 291.96 642.5 293.45C643.96 295.43 644.5 297.72 644.5 302.01C644.5 306.29 643.96 308.58 642.5 310.56C641.4 312.05 639.22 314.22 637.66 315.38C635.82 316.76 633 317.61 629.66 317.8C625.72 318.02 623.57 317.55 620.57 315.8C618.16 314.39 615.73 311.77 614.25 309.01C612.38 305.48 612 303.64 612.49 300.51C612.84 298.31 613.99 295.04 615.06 293.26C616.13 291.47 618.69 289.1 620.75 287.99C623.41 286.57 626 286.06 629.66 286.24Z" fill="#114845"/>
</svg>
